<svg xmlns="http://www.w3.org/2000/svg" xmlns:xlink="http://www.w3.org/1999/xlink" width="339" height="348"><style><![CDATA[.B{fill-rule:nonzero}.C{stroke-linecap:round}.D{stroke-linejoin:round}.E{stroke-width:1.021}]]></style><defs><path id="A" d="M0 0h536v364H0z"/><linearGradient id="B" x1="50.077%" x2="50.077%" y1="31.993%" y2="155.19%"><stop offset=".261%" stop-color="#c8f1ff"/><stop offset="99.58%" stop-color="#4cd3ff"/></linearGradient><linearGradient id="C" x1="29.983%" x2="66.445%" y1="-29.25%" y2="114.108%"><stop offset=".261%" stop-color="#c8f1ff"/><stop offset="99.58%" stop-color="#4cd3ff"/></linearGradient><linearGradient id="D" x1="15.864%" x2="40.185%" y1="-145.355%" y2="-3.62%"><stop offset=".261%" stop-color="#c8f1ff"/><stop offset="99.58%" stop-color="#4cd3ff"/></linearGradient><linearGradient id="E" x1="27.117%" x2="50.538%" y1="-100.706%" y2="45.007%"><stop offset=".261%" stop-color="#c8f1ff"/><stop offset="99.58%" stop-color="#4cd3ff"/></linearGradient><linearGradient id="F" x1="25.206%" x2="45.77%" y1="-122.07%" y2="21.658%"><stop offset=".261%" stop-color="#c8f1ff"/><stop offset="99.58%" stop-color="#4cd3ff"/></linearGradient><linearGradient id="G" x1="15.388%" x2="32.946%" y1="-47.052%" y2=".074%"><stop offset=".261%" stop-color="#c8f1ff"/><stop offset="99.58%" stop-color="#4cd3ff"/></linearGradient><linearGradient id="H" x1="44.943%" x2="87.336%" y1="23.548%" y2="319.48%"><stop offset=".261%" stop-color="#c8f1ff"/><stop offset="99.58%" stop-color="#4cd3ff"/></linearGradient><linearGradient id="I" x1="50.54%" x2="88.829%" y1="45.938%" y2="346.077%"><stop offset=".261%" stop-color="#c8f1ff"/><stop offset="99.58%" stop-color="#4cd3ff"/></linearGradient><linearGradient id="J" x1="14.314%" x2="95.526%" y1="-92.806%" y2="228.344%"><stop offset=".261%" stop-color="#c8f1ff"/><stop offset="99.58%" stop-color="#4cd3ff"/></linearGradient><linearGradient id="K" x1="29.362%" x2="86.519%" y1="26.56%" y2="90.098%"><stop offset=".261%" stop-color="#c8f1ff"/><stop offset="99.58%" stop-color="#4cd3ff"/></linearGradient><linearGradient id="L" x1="16.884%" x2="74.041%" y1="12.484%" y2="76.192%"><stop offset=".261%" stop-color="#c8f1ff"/><stop offset="99.58%" stop-color="#4cd3ff"/></linearGradient><linearGradient id="M" x1="3.096%" x2="60.252%" y1="-21.112%" y2="64.66%"><stop offset=".261%" stop-color="#c8f1ff"/><stop offset="99.58%" stop-color="#4cd3ff"/></linearGradient><linearGradient id="N" x1="36.836%" x2="77.94%" y1="26.383%" y2="100.358%"><stop offset=".261%" stop-color="#c8f1ff"/><stop offset="99.58%" stop-color="#4cd3ff"/></linearGradient><linearGradient id="O" x1="50.022%" x2="50.022%" y1="32.429%" y2="155.286%"><stop offset=".261%" stop-color="#c8f1ff"/><stop offset="99.58%" stop-color="#4cd3ff"/></linearGradient><linearGradient id="P" x1="17.621%" x2="76.412%" y1="-15.325%" y2="101.956%"><stop offset=".261%" stop-color="#c8f1ff"/><stop offset="99.58%" stop-color="#4cd3ff"/></linearGradient><linearGradient id="Q" x1="-3.113%" x2="48.985%" y1="-180.701%" y2="47.401%"><stop offset=".261%" stop-color="#c8f1ff"/><stop offset="99.58%" stop-color="#4cd3ff"/></linearGradient><linearGradient id="R" x1="20.263%" x2="61.36%" y1="-113.888%" y2="98.842%"><stop offset=".261%" stop-color="#c8f1ff"/><stop offset="99.58%" stop-color="#4cd3ff"/></linearGradient><linearGradient id="S" x1="17.06%" x2="54.206%" y1="-142.617%" y2="73.988%"><stop offset=".261%" stop-color="#c8f1ff"/><stop offset="99.58%" stop-color="#4cd3ff"/></linearGradient><linearGradient id="T" x1=".981%" x2="35.626%" y1="-59.181%" y2="19.373%"><stop offset=".261%" stop-color="#c8f1ff"/><stop offset="99.58%" stop-color="#4cd3ff"/></linearGradient><linearGradient id="U" x1="39.643%" x2="146.668%" y1="14.7%" y2="359.332%"><stop offset=".261%" stop-color="#c8f1ff"/><stop offset="99.58%" stop-color="#4cd3ff"/></linearGradient><linearGradient id="V" x1="51.624%" x2="144.681%" y1="50.689%" y2="390.425%"><stop offset=".261%" stop-color="#c8f1ff"/><stop offset="99.58%" stop-color="#4cd3ff"/></linearGradient><linearGradient id="W" x1="-13.911%" x2="192.179%" y1="-62.15%" y2="302.007%"><stop offset=".261%" stop-color="#c8f1ff"/><stop offset="99.58%" stop-color="#4cd3ff"/></linearGradient><linearGradient id="X" x1="6.281%" x2="95.907%" y1="21.08%" y2="80.751%"><stop offset=".261%" stop-color="#c8f1ff"/><stop offset="99.58%" stop-color="#4cd3ff"/></linearGradient><linearGradient id="Y" x1="-10.303%" x2="79.324%" y1="9.829%" y2="69.5%"><stop offset=".261%" stop-color="#c8f1ff"/><stop offset="99.58%" stop-color="#4cd3ff"/></linearGradient><linearGradient id="Z" x1="-30.192%" x2="59.433%" y1="-25.546%" y2="59.06%"><stop offset=".261%" stop-color="#c8f1ff"/><stop offset="99.58%" stop-color="#4cd3ff"/></linearGradient><linearGradient id="a" x1="83.366%" x2="37.08%" y1="-157.455%" y2="134.474%"><stop offset=".774%" stop-color="#00baa7"/><stop offset="100%" stop-color="#009484"/></linearGradient><linearGradient id="b" x1="65.72%" x2="56.119%" y1="-48.458%" y2="12.096%"><stop offset=".774%" stop-color="#00baa7"/><stop offset="100%" stop-color="#009484"/></linearGradient><linearGradient id="c" x1="43.585%" x2="57.701%" y1="92.55%" y2="-13.554%"><stop offset=".327%" stop-color="#ff9d15"/><stop offset="99.97%" stop-color="#f60"/></linearGradient><linearGradient id="d" x1="55.267%" x2="41.611%" y1="23.885%" y2="88.772%"><stop offset=".774%" stop-color="#00baa7"/><stop offset="100%" stop-color="#009484"/></linearGradient><linearGradient id="e" x1="32.125%" x2="87.025%" y1="162.7%" y2="-199.038%"><stop offset=".327%" stop-color="#ff9d15"/><stop offset="99.97%" stop-color="#f60"/></linearGradient><linearGradient id="f" x1="38.253%" x2="52.778%" y1="54.709%" y2="47.241%"><stop offset=".327%" stop-color="#ff9d15"/><stop offset="99.97%" stop-color="#f60"/></linearGradient><linearGradient id="g" x1="93.324%" x2="-7.263%" y1="30.684%" y2="70.073%"><stop offset=".327%" stop-color="#ff9d15"/><stop offset="99.97%" stop-color="#f60"/></linearGradient><linearGradient id="h" x1="98.56%" x2="-3.037%" y1="44.976%" y2="55.594%"><stop offset=".327%" stop-color="#ff9d15"/><stop offset="99.97%" stop-color="#f60"/></linearGradient><linearGradient id="i" x1="22.998%" x2="49.846%" y1="26.678%" y2="48.126%"><stop offset=".187%" stop-color="#8048a4"/><stop offset="100%" stop-color="#653983"/></linearGradient><linearGradient id="j" x1="28.4%" x2="52.196%" y1="10.293%" y2="53.663%"><stop offset=".187%" stop-color="#8048a4"/><stop offset="100%" stop-color="#653983"/></linearGradient><linearGradient id="k" x1="36.136%" x2="74.971%" y1="98.429%" y2="-5.69%"><stop offset=".248%" stop-color="#00b3ff"/><stop offset="99.83%" stop-color="#0073aa"/></linearGradient><linearGradient id="l" x1="8.779%" x2="82.114%" y1="34.248%" y2="66.01%"><stop offset=".261%" stop-color="#c8f1ff"/><stop offset="99.58%" stop-color="#4cd3ff"/></linearGradient><linearGradient id="m" x1="38.441%" x2="64.511%" y1="65.935%" y2="32.274%"><stop offset=".261%" stop-color="#c8f1ff"/><stop offset="99.58%" stop-color="#4cd3ff"/></linearGradient><linearGradient id="n" x1="42.055%" x2="60.517%" y1="59.528%" y2="41.972%"><stop offset=".327%" stop-color="#ff9d15"/><stop offset="99.97%" stop-color="#f60"/></linearGradient><linearGradient id="o" x1="61.098%" x2="43.998%" y1="131.857%" y2="16.226%"><stop offset=".327%" stop-color="#ff9d15"/><stop offset="99.97%" stop-color="#f60"/></linearGradient><linearGradient id="p" x1="49.93%" x2="49.93%" y1="32.46%" y2="155.546%"><stop offset=".261%" stop-color="#c8f1ff"/><stop offset="99.58%" stop-color="#4cd3ff"/></linearGradient><linearGradient id="q" x1="40.406%" x2="56.12%" y1="-41.971%" y2="107.575%"><stop offset=".261%" stop-color="#c8f1ff"/><stop offset="99.58%" stop-color="#4cd3ff"/></linearGradient><linearGradient id="r" x1="-1.419%" x2="68.372%" y1="23.921%" y2="59.351%"><stop offset=".261%" stop-color="#c8f1ff"/><stop offset="99.58%" stop-color="#4cd3ff"/></linearGradient><linearGradient id="s" x1="9.273%" x2="86.699%" y1="27.445%" y2="70.586%"><stop offset=".261%" stop-color="#c8f1ff"/><stop offset="99.58%" stop-color="#4cd3ff"/></linearGradient><linearGradient id="t" x1="-47.182%" x2="55.197%" y1="-47.136%" y2="55.555%"><stop offset=".261%" stop-color="#c8f1ff"/><stop offset="99.58%" stop-color="#4cd3ff"/></linearGradient><linearGradient id="u" x1="48.694%" x2="65.871%" y1="48.944%" y2="60.041%"><stop offset=".261%" stop-color="#c8f1ff"/><stop offset="99.58%" stop-color="#4cd3ff"/></linearGradient><linearGradient id="v" x1="33.838%" x2="44.462%" y1="-165.772%" y2="-32.495%"><stop offset=".261%" stop-color="#c8f1ff"/><stop offset="99.58%" stop-color="#4cd3ff"/></linearGradient><linearGradient id="w" x1="32.368%" x2="41.862%" y1="-181.167%" y2="-47.89%"><stop offset=".261%" stop-color="#c8f1ff"/><stop offset="99.58%" stop-color="#4cd3ff"/></linearGradient><linearGradient id="x" x1="30.224%" x2="41.697%" y1="-194.636%" y2="-62.965%"><stop offset=".261%" stop-color="#c8f1ff"/><stop offset="99.58%" stop-color="#4cd3ff"/></linearGradient><linearGradient id="y" x1="29.17%" x2="37.341%" y1="-61.119%" y2="-19.737%"><stop offset=".261%" stop-color="#c8f1ff"/><stop offset="99.58%" stop-color="#4cd3ff"/></linearGradient><linearGradient id="z" x1="36.08%" x2="112.471%" y1="-18.878%" y2="376.539%"><stop offset=".261%" stop-color="#c8f1ff"/><stop offset="99.58%" stop-color="#4cd3ff"/></linearGradient><linearGradient id="AA" x1="44.841%" x2="111.48%" y1="12.148%" y2="407.563%"><stop offset=".261%" stop-color="#c8f1ff"/><stop offset="99.58%" stop-color="#4cd3ff"/></linearGradient><linearGradient id="AB" x1="-6.29%" x2="132.571%" y1="-123.287%" y2="282.456%"><stop offset=".261%" stop-color="#c8f1ff"/><stop offset="99.58%" stop-color="#4cd3ff"/></linearGradient><linearGradient id="AC" x1="50.094%" x2="50.094%" y1="32.307%" y2="155.061%"><stop offset=".261%" stop-color="#c8f1ff"/><stop offset="99.58%" stop-color="#4cd3ff"/></linearGradient><linearGradient id="AD" x1="49.737%" x2="49.737%" y1="32.284%" y2="155.446%"><stop offset=".261%" stop-color="#c8f1ff"/><stop offset="99.58%" stop-color="#4cd3ff"/></linearGradient><linearGradient id="AE" x1="34.096%" x2="67.531%" y1="-6.691%" y2="113.218%"><stop offset=".261%" stop-color="#c8f1ff"/><stop offset="99.58%" stop-color="#4cd3ff"/></linearGradient><linearGradient id="AF" x1="-20.957%" x2="57.595%" y1="-173.34%" y2="70.664%"><stop offset=".261%" stop-color="#c8f1ff"/><stop offset="99.58%" stop-color="#4cd3ff"/></linearGradient><linearGradient id="AG" x1="17.918%" x2="120.634%" y1="-14.128%" y2="168.421%"><stop offset=".261%" stop-color="#c8f1ff"/><stop offset="99.58%" stop-color="#4cd3ff"/></linearGradient><linearGradient id="AH" x1="-59.839%" x2="112.344%" y1="-180.228%" y2="177.892%"><stop offset=".261%" stop-color="#c8f1ff"/><stop offset="99.58%" stop-color="#4cd3ff"/></linearGradient><linearGradient id="AI" x1="-22.341%" x2="152.338%" y1="-102.702%" y2="252.294%"><stop offset=".261%" stop-color="#c8f1ff"/><stop offset="99.58%" stop-color="#4cd3ff"/></linearGradient><linearGradient id="AJ" x1="-6.019%" x2="39.639%" y1="-178.182%" y2="10.656%"><stop offset=".261%" stop-color="#c8f1ff"/><stop offset="99.58%" stop-color="#4cd3ff"/></linearGradient><linearGradient id="AK" x1="15.589%" x2="57.255%" y1="-112.047%" y2="75.313%"><stop offset=".261%" stop-color="#c8f1ff"/><stop offset="99.58%" stop-color="#4cd3ff"/></linearGradient><linearGradient id="AL" x1="14.652%" x2="49.008%" y1="-137.51%" y2="44.261%"><stop offset=".261%" stop-color="#c8f1ff"/><stop offset="99.58%" stop-color="#4cd3ff"/></linearGradient><linearGradient id="AM" x1="2.136%" x2="32.589%" y1="-55.483%" y2="9.385%"><stop offset=".261%" stop-color="#c8f1ff"/><stop offset="99.58%" stop-color="#4cd3ff"/></linearGradient><linearGradient id="AN" x1="51.396%" x2="104.649%" y1="56.735%" y2="365.857%"><stop offset=".261%" stop-color="#c8f1ff"/><stop offset="99.58%" stop-color="#4cd3ff"/></linearGradient><linearGradient id="AO" x1="57.459%" x2="109.113%" y1="83.742%" y2="396.492%"><stop offset=".261%" stop-color="#c8f1ff"/><stop offset="99.58%" stop-color="#4cd3ff"/></linearGradient><linearGradient id="AP" x1="23.6%" x2="126.408%" y1="-41.864%" y2="280.061%"><stop offset=".261%" stop-color="#c8f1ff"/><stop offset="99.58%" stop-color="#4cd3ff"/></linearGradient><linearGradient id="AQ" x1="50.032%" x2="50.032%" y1="32.299%" y2="155.025%"><stop offset=".261%" stop-color="#c8f1ff"/><stop offset="99.58%" stop-color="#4cd3ff"/></linearGradient><linearGradient id="AR" x1="49.988%" x2="49.988%" y1="32.359%" y2="155.385%"><stop offset=".261%" stop-color="#c8f1ff"/><stop offset="99.58%" stop-color="#4cd3ff"/></linearGradient><linearGradient id="AS" x1="-2.316%" x2="82.791%" y1="-9.091%" y2="86.977%"><stop offset=".261%" stop-color="#c8f1ff"/><stop offset="99.58%" stop-color="#4cd3ff"/></linearGradient><linearGradient id="AT" x1="-16.4%" x2="69.121%" y1="-60.26%" y2="80.586%"><stop offset=".261%" stop-color="#c8f1ff"/><stop offset="99.58%" stop-color="#4cd3ff"/></linearGradient><linearGradient id="AU" x1="13.758%" x2="92.743%" y1="3.516%" y2="103.562%"><stop offset=".261%" stop-color="#c8f1ff"/><stop offset="99.58%" stop-color="#4cd3ff"/></linearGradient><linearGradient id="AV" x1="47.199%" x2="88.138%" y1="46.811%" y2="84.305%"><stop offset=".261%" stop-color="#c8f1ff"/><stop offset="99.58%" stop-color="#4cd3ff"/></linearGradient><linearGradient id="AW" x1="48.791%" x2="50.411%" y1="-28.571%" y2="83.627%"><stop offset=".261%" stop-color="#c8f1ff"/><stop offset="99.58%" stop-color="#4cd3ff"/></linearGradient><linearGradient id="AX" x1="4.073%" x2="27.479%" y1="77.551%" y2="65.856%"><stop offset=".248%" stop-color="#00b3ff"/><stop offset="99.83%" stop-color="#0073aa"/></linearGradient><linearGradient id="AY" x1="105.796%" x2="56.926%" y1="-61.802%" y2="29.071%"><stop offset="0%" stop-color="#fff"/><stop offset="46.09%" stop-color="#c8f1ff"/><stop offset="99.58%" stop-color="#4cd3ff"/></linearGradient><linearGradient id="AZ" x1="39.686%" x2="67.933%" y1="84.762%" y2="47.781%"><stop offset=".248%" stop-color="#00b3ff"/><stop offset="99.83%" stop-color="#0073aa"/></linearGradient><linearGradient id="Aa" x1="80.755%" x2="13.563%" y1="43.205%" y2="63.034%"><stop offset=".248%" stop-color="#00b3ff"/><stop offset="99.83%" stop-color="#0073aa"/></linearGradient><linearGradient id="Ab" x1="49.572%" x2="50.926%" y1="-.541%" y2="121.638%"><stop offset="0%" stop-color="#00b3ff"/><stop offset="99.83%" stop-color="#0073aa"/></linearGradient><linearGradient id="Ac" x1="97.187%" x2="31.633%" y1="-15.433%" y2="103.167%"><stop offset="0%" stop-color="#fff"/><stop offset="46.09%" stop-color="#c8f1ff"/><stop offset="99.58%" stop-color="#4cd3ff"/></linearGradient><linearGradient id="Ad" x1="30.772%" x2="69.172%" y1="59.44%" y2="40.344%"><stop offset="0%" stop-color="#00b3ff"/><stop offset="99.83%" stop-color="#0073aa"/></linearGradient><linearGradient id="Ae" x1="41.375%" x2="58.705%" y1="104.581%" y2="-5.103%"><stop offset="0%" stop-color="#00b3ff"/><stop offset="99.83%" stop-color="#0073aa"/></linearGradient><linearGradient id="Af" x1="49.91%" x2="50.089%" y1="94.584%" y2="5.369%"><stop offset="0%" stop-color="#00b3ff"/><stop offset="99.83%" stop-color="#0073aa"/></linearGradient><linearGradient id="Ag" x1="49.72%" x2="50.321%" y1="86.997%" y2="13.028%"><stop offset="0%" stop-color="#00b3ff"/><stop offset="99.83%" stop-color="#0073aa"/></linearGradient><linearGradient id="Ah" x1="50.003%" x2="50.026%" y1="93.205%" y2="6.802%"><stop offset="0%" stop-color="#00b3ff"/><stop offset="99.83%" stop-color="#0073aa"/></linearGradient><linearGradient id="Ai" x1="36.896%" x2="63.262%" y1="106.46%" y2="-6.546%"><stop offset="0%" stop-color="#00b3ff"/><stop offset="99.83%" stop-color="#0073aa"/></linearGradient><linearGradient id="Aj" x1="212.732%" x2="-93.941%" y1="-63.8%" y2="150.191%"><stop offset=".261%" stop-color="#c8f1ff"/><stop offset="99.58%" stop-color="#4cd3ff"/></linearGradient><linearGradient id="Ak" x1="208.905%" x2="-97.768%" y1="-58.582%" y2="155.409%"><stop offset=".261%" stop-color="#c8f1ff"/><stop offset="99.58%" stop-color="#4cd3ff"/></linearGradient><linearGradient id="Al" x1="209.468%" x2="-97.205%" y1="-63.109%" y2="150.891%"><stop offset=".261%" stop-color="#c8f1ff"/><stop offset="99.58%" stop-color="#4cd3ff"/></linearGradient><linearGradient id="Am" x1="213.286%" x2="-93.395%" y1="-62.636%" y2="151.345%"><stop offset=".261%" stop-color="#c8f1ff"/><stop offset="99.58%" stop-color="#4cd3ff"/></linearGradient><linearGradient id="An" x1="211.223%" x2="-95.45%" y1="-62.891%" y2="151.1%"><stop offset=".261%" stop-color="#c8f1ff"/><stop offset="99.58%" stop-color="#4cd3ff"/></linearGradient><linearGradient id="Ao" x1="218.341%" x2="-88.341%" y1="-67.091%" y2="146.891%"><stop offset=".261%" stop-color="#c8f1ff"/><stop offset="99.58%" stop-color="#4cd3ff"/></linearGradient><linearGradient id="Ap" x1="41.539%" x2="59.272%" y1="11.251%" y2="82.897%"><stop offset="0%" stop-color="#89c340"/><stop offset="100%" stop-color="#6fa329"/></linearGradient><linearGradient id="Aq" x1="43.239%" x2="64.939%" y1="35.025%" y2="63.221%"><stop offset="0%" stop-color="#04ae59"/><stop offset="100%" stop-color="#047b35"/></linearGradient><linearGradient id="Ar" x1="29.095%" x2="73.933%" y1="29.185%" y2="74.614%"><stop offset="0%" stop-color="#e90089"/><stop offset="100%" stop-color="#c4007c"/></linearGradient><linearGradient id="As" x1="4.488%" x2="74.048%" y1="-1.748%" y2="78.443%"><stop offset="0%" stop-color="#f4901e"/><stop offset="100%" stop-color="#ea5f01"/></linearGradient><linearGradient id="At" x1="46.336%" x2="162.254%" y1="47.273%" y2="165.909%"><stop offset="0%" stop-color="#f4901e"/><stop offset="100%" stop-color="#ea5f01"/></linearGradient><linearGradient id="Au" x1="39.712%" x2="61.983%" y1="13.896%" y2="86.307%"><stop offset="0%" stop-color="#f4901e"/><stop offset="100%" stop-color="#ea5f01"/></linearGradient><linearGradient id="Av" x1="46.841%" x2="51.713%" y1="-15.104%" y2="88.883%"><stop offset="0%" stop-color="#ea1d25"/><stop offset="100%" stop-color="#a80000"/></linearGradient><linearGradient id="Aw" x1="46.457%" x2="91.714%" y1="47.23%" y2="67.713%"><stop offset="0%" stop-color="#ea1d25"/><stop offset="100%" stop-color="#a80000"/></linearGradient><linearGradient id="Ax" x1="31.442%" x2="67.291%" y1="24.787%" y2="79.168%"><stop offset="0%" stop-color="#43d1ff"/><stop offset="100%" stop-color="#3ebdff"/></linearGradient><linearGradient id="Ay" x1="63.47%" x2="28.334%" y1="82.361%" y2="7.707%"><stop offset="0%" stop-color="#43d1ff"/><stop offset="100%" stop-color="#3ebdff"/></linearGradient><linearGradient id="Az" x1="72.686%" x2="22.323%" y1="27.965%" y2="57.651%"><stop offset="0%" stop-color="#43d1ff"/><stop offset="100%" stop-color="#3ebdff"/></linearGradient><linearGradient id="BA" x1="31.671%" x2="53.221%" y1="24.418%" y2="61.825%"><stop offset="0%" stop-color="#43d1ff"/><stop offset="100%" stop-color="#3ebdff"/></linearGradient><linearGradient id="BB" x1="40.576%" x2="54.56%" y1="39.573%" y2="55.4%"><stop offset="0%" stop-color="#43d1ff"/><stop offset="100%" stop-color="#3ebdff"/></linearGradient><linearGradient id="BC" x1="74.168%" x2="25.845%" y1="28.125%" y2="71.237%"><stop offset="0%" stop-color="#fff"/><stop offset="46.09%" stop-color="#c8f1ff"/><stop offset="99.58%" stop-color="#4cd3ff"/></linearGradient><linearGradient id="BD" x1="1.108%" x2="100.753%" y1="46.527%" y2="46.527%"><stop offset="0%" stop-color="#43d1ff"/><stop offset="100%" stop-color="#3ebdff"/></linearGradient><linearGradient id="BE" x1="64.003%" x2="17.933%" y1="11.087%" y2="140.82%"><stop offset=".261%" stop-color="#c8f1ff"/><stop offset="99.58%" stop-color="#4cd3ff"/></linearGradient><linearGradient id="BF" x1="68.993%" x2="19.155%" y1="-56.947%" y2="235.322%"><stop offset=".248%" stop-color="#00b3ff"/><stop offset="99.83%" stop-color="#0073aa"/></linearGradient><linearGradient id="BG" x1="81.504%" x2="-10.857%" y1="-75.62%" y2="257.867%"><stop offset=".248%" stop-color="#00b3ff"/><stop offset="99.83%" stop-color="#0073aa"/></linearGradient><linearGradient id="BH" x1="74.863%" x2="9.796%" y1="-60.929%" y2="244.739%"><stop offset=".248%" stop-color="#00b3ff"/><stop offset="99.83%" stop-color="#0073aa"/></linearGradient><linearGradient id="BI" x1="82.779%" x2="41.288%" y1="-27.438%" y2="72.339%"><stop offset=".248%" stop-color="#00b3ff"/><stop offset="99.83%" stop-color="#0073aa"/></linearGradient><linearGradient id="BJ" x1="83.277%" x2="38.169%" y1="-121.8%" y2="116.731%"><stop offset=".261%" stop-color="#c8f1ff"/><stop offset="99.58%" stop-color="#4cd3ff"/></linearGradient><linearGradient id="BK" x1="93.135%" x2="31.023%" y1="-133.428%" y2="118.52%"><stop offset=".261%" stop-color="#c8f1ff"/><stop offset="99.58%" stop-color="#4cd3ff"/></linearGradient><linearGradient id="BL" x1="139.337%" x2="62.307%" y1="-260.066%" y2="-7.107%"><stop offset=".261%" stop-color="#c8f1ff"/><stop offset="99.58%" stop-color="#4cd3ff"/></linearGradient><linearGradient id="BM" x1="65.699%" x2="34.144%" y1="2.583%" y2="98.365%"><stop offset="0%" stop-color="#89c340"/><stop offset="100%" stop-color="#6fa329"/></linearGradient></defs><g fill="none" fill-rule="evenodd" transform="translate(-98 -8)"><mask id="BN" fill="#fff"><use xlink:href="#A"/></mask><g mask="url(#BN)"><g class="B"><g opacity=".8"><path fill="url(#B)" d="M381.937 137.698v50.047c0 3.064-2.86 5.515-5.924 4.902-14.095-2.655-51.476-9.192-94.578-11.848-2.655-.204-4.698-2.247-4.698-4.9v-51.07c0-2.86 2.247-5.106 5.107-4.9 14.708.612 58.217 3.268 96.416 13.277 2.247.204 3.677 2.247 3.677 4.494z"/><path fill="url(#C)" d="M330.665 130.344c-19.202-2.45-35.543-3.472-42.693-3.676-2.043 0-3.88 1.635-3.88 3.677v39.22c0 2.043 1.43 3.473 3.473 3.677 15.116.817 29.62 2.452 42.08 3.882 2.247.204 4.085-1.43 4.085-3.677V134.02c0-1.838-1.226-3.472-3.064-3.677z"/><path fill="url(#D)" d="M324.74 137.903c-.408-1.226-1.634-2.247-2.86-2.45l-4.085-.205 1.838 11.03c0 1.838 1.635 3.473 3.677 3.677s3.677-1.226 3.677-3.064l-2.247-8.988z"/><path fill="url(#E)" d="M297.573 144.644l1.02-10.827-3.88-.204c-1.43-.204-2.656.817-3.065 2.247l-1.43 8.375c0 1.84 1.634 3.473 3.677 3.677 2.043 0 3.677-1.43 3.677-3.268z"/><path fill="url(#F)" d="M308.604 148.73c2.042.205 3.677-1.225 3.677-3.064l-1.022-11.03-6.536-.41v10.826c.204 1.84 1.838 3.473 3.88 3.677z"/><path fill="url(#G)" d="M319.635 149.547c-1.022.816-2.248 1.225-3.678 1.225-1.43-.204-2.655-.817-3.676-1.634-1.022.817-2.247 1.225-3.677 1.225s-2.656-.817-3.677-1.634c-1.022.817-2.247 1.226-3.677 1.226s-2.656-.817-3.677-1.634c-1.02.817-2.247 1.225-3.677 1.225-.613 0-1.02-.204-1.634-.408v15.933c0 2.86 2.247 5.515 5.31 5.72l22.06 1.634c2.86.204 5.31-2.043 5.31-4.903V151.59c-.612.204-1.02.204-1.634.204-1.43-.612-2.86-1.225-3.677-2.247z"/><path fill="url(#H)" d="M317.796 135.043l-6.333-.41 1.022 11.03c0 1.84 1.634 3.473 3.676 3.678s3.677-1.226 3.677-3.064l-2.042-11.235z"/><path fill="url(#I)" d="M304.927 145.052v-10.826l-6.333-.41-1.02 10.826c0 1.84 1.634 3.473 3.677 3.677a3.34 3.34 0 0 0 3.677-3.268z"/><path fill="url(#J)" d="M314.527 157.308l-2.45-.613c-.4 0-.818-.408-1.022-.817l-1.022-2.45c-.408-1.02-1.838-1.02-2.247-.204l-1.02 2.247c-.195.383-.59.62-1.02.613l-2.452.204c-1.02 0-1.43 1.43-.817 2.247l1.84 1.838c.408.41.408.817.408 1.226l-.408 2.45c-.205 1.022 1.02 2.043 1.838 1.43l2.247-1.02a1.3 1.3 0 0 1 1.226 0l2.247 1.43c1.02.612 2.042-.205 1.838-1.226l-.408-2.45c0-.41 0-.817.408-1.226l1.84-1.634c.408-.41 0-1.84-1.022-2.043z"/><path fill="url(#K)" d="M339.244 139.74v3.064c0 .817.613 1.634 1.43 1.634l28.2 5.107c1.02.204 2.247-.613 2.247-1.84v-3.268c0-.817-.613-1.634-1.43-1.634-3.677-.817-14.912-3.268-28.598-4.903-.817 0-1.84.818-1.84 1.84z"/><path fill="url(#L)" d="M339.244 153.223v3.064c0 .817.613 1.634 1.43 1.634l28.2 5.107c1.02.204 2.247-.613 2.247-1.84v-3.268c0-.817-.613-1.634-1.43-1.634-3.677-.817-14.912-3.27-28.598-4.903-.817-.204-1.84.613-1.84 1.84z"/><path fill="url(#M)" d="M339.244 165.888v7.15c0 .816.613 1.633 1.43 1.633l28.2 5.107c1.02.204 2.247-.613 2.247-1.838v-7.354c0-.817-.613-1.634-1.43-1.634-3.88-.817-14.912-3.27-28.598-4.903-.817 0-1.84.817-1.84 1.84z"/><path fill="url(#N)" d="M344.555 169.156v2.247c0 .408.41 1.02.817 1.02l19.202 3.473c.613.204 1.226-.41 1.226-1.02v-2.248c0-.41-.41-1.022-.818-1.022-2.86-.613-13.073-2.655-19.405-3.472a.96.96 0 0 0-1.022 1.02z"/></g><g opacity=".8"><path fill="url(#O)" d="M152.54 137.086v51.272c0 2.655 2.45 4.698 5.107 4.3 13.48-2.656 51.884-9.397 96.007-12.052 2.247-.205 4.086-2.043 4.086-4.3v-52.498c0-2.45-2.043-4.494-4.494-4.3-14.095.614-58.626 3.066-97.438 13.483-2.043.408-3.267 2.247-3.267 4.085z"/><path fill="url(#P)" d="M203.61 129.324c-12.665 1.634-26.556 4.3-40.65 7.966a5.7 5.7 0 0 0-4.29 5.515v37.383c0 3.677 3.268 6.332 6.74 5.72 8.172-1.634 21.654-3.88 39.425-6.128 2.86-.41 5.107-2.86 5.107-5.72v-39.017c.204-3.472-2.86-6.128-6.332-5.72z"/><path fill="url(#Q)" d="M200.545 139.946c-.41-1.226-1.43-1.84-2.86-1.634l-3.88.612 1.838 10.214c0 1.838 1.634 3.064 3.473 2.655 2.042-.408 3.472-2.042 3.472-3.88l-2.042-7.967z"/><path fill="url(#R)" d="M174.194 153.02l.817-10.622-3.677.613c-1.43.204-2.656 1.43-2.86 2.86l-1.43 8.375c0 1.838 1.634 3.064 3.473 2.655 2.042-.408 3.677-2.247 3.677-3.88z"/><path fill="url(#S)" d="M184.816 154.45c2.042-.41 3.472-2.043 3.472-3.88l-.817-10.418-6.128 1.02v10.622c0 1.635 1.634 2.86 3.473 2.656z"/><path fill="url(#T)" d="M195.642 152.61c-.817 1.02-2.247 1.838-3.473 2.042-1.43.205-2.655 0-3.472-.817-.817 1.022-2.247 1.84-3.473 2.043s-2.655 0-3.472-.817a6.12 6.12 0 0 1-3.473 2.043c-1.43.204-2.656 0-3.473-.818-.817 1.022-2.247 1.84-3.472 2.043h-1.43v15.32c0 2.86 2.247 4.7 5.107 4.3l21.447-3.677c2.86-.408 5.107-3.064 5.107-5.924v-15.524c-.41.204-1.02.408-1.634.613-2.247.204-3.473 0-4.3-.817z"/><path fill="url(#U)" d="M193.803 139.13l-6.128 1.02.817 10.42c0 1.838 1.634 3.064 3.472 2.655 2.043-.408 3.473-2.042 3.473-3.88l-1.634-10.215z"/><path fill="url(#V)" d="M181.342 151.794V141.17l-6.128 1.024-.817 10.62c0 1.838 1.634 3.064 3.473 2.655 1.838-.204 3.472-2.042 3.472-3.677z"/><path fill="url(#W)" d="M190.74 161.2h-2.452c-.41 0-.818-.204-1.022-.613l-1.02-2.043c-.41-.817-1.84-.613-2.247.41l-1.022 2.45c-.204.41-.612.817-1.02.817l-2.452.817c-1.022.41-1.43 1.634-.613 2.247l1.838 1.43a1.56 1.56 0 0 1 .409 1.022l-.41 2.45c-.204 1.022.818 1.635 1.84 1.022l2.247-1.43c.408-.204.817-.408 1.226-.204l1.838 1.02c1.02.41 2.043-.613 1.838-1.634l-.408-2.45c0-.41 0-.817.408-1.226l1.84-2.04c.613-.818.204-2.043-.817-2.043z"/><path fill="url(#X)" d="M216.886 135.043v3.88c0 1.226 1.02 2.247 2.45 2.043 5.517-.613 19.61-2.043 27.374-2.246 1.226 0 2.043-1.022 2.043-2.043v-3.88c0-1.226-1.02-2.247-2.247-2.043-5.11.205-17.977 1.022-27.782 2.247-1.02.205-1.838 1.023-1.838 2.043z"/><path fill="url(#Y)" d="M216.886 148.73v3.88c0 1.226 1.02 2.247 2.45 2.043 5.516-.613 19.6-2.043 27.373-2.247 1.226 0 2.043-1.02 2.043-2.043v-3.88c0-1.226-1.02-2.248-2.247-2.044-5.107.205-17.976 1.022-27.78 2.247-1.02 0-1.838.817-1.838 2.043z"/><path fill="url(#Z)" d="M216.886 162.62v8.17c0 1.226 1.02 2.247 2.45 2.043 5.516-.613 19.6-2.043 27.373-2.247 1.226 0 2.043-1.02 2.043-2.043v-8.17c0-1.226-1.02-2.247-2.247-2.043-5.107.204-17.976 1.02-27.78 2.247-1.02.204-1.838 1.02-1.838 2.043z"/></g><circle cx="284.295" cy="112.981" r="6.945" fill="url(#a)"/><circle cx="318.613" cy="126.872" r="12.256" fill="url(#b)"/><path fill="url(#c)" d="M282.865 109.51c-1.634 10.622 4.086 22.674 13.482 24.104 9.192 1.43 18.59-8.17 20.223-18.793s-4.494-20.223-13.686-21.653c-9.6-1.634-18.384 5.72-20.02 16.342z"/><path fill="url(#d)" d="M326.375 115.84s-3.677 7.762-11.643 4.494c0 0-8.784-1.838-6.74-17.772 0 0-14.708-6.128-20.632-3.268-2.247 3.473-3.268 5.72-3.268 5.72s-4.494-3.677-2.043-10 14.096-12.256 30.028-7.762c14.912 4.494 19.406 16.75 14.3 28.598z"/><path fill="url(#e)" d="M309.216 118.497s2.656-6.74 7.763-4.086c5.106 2.45 5.3 10.214-1.84 11.235s-5.3-4.902-5.924-7.15z"/><path fill="url(#f)" d="M273.673 147.503s-37.586 6.946-60.056 2.248c-22.674-4.7-54.54-.41-54.54-.41s-22.06-.817-25.33 2.86 8.375 3.064 8.375 3.064-1.634 10.214 6.946 8.375 8.375-5.72 8.375-5.72 20.63 3.677 33.296 9.6 48.82 21.857 69.044 12.052 13.9-32.07 13.9-32.07z"/><path fill="url(#g)" d="M206.47 301.524s8.375 9.6 6.74 14.095-21.448 14.912-24.308 9.396c-3.268-6.332 13.9-12.052 13.9-12.052s-3.88-6.536-5.515-7.966c3.065-3.064 9.194-3.473 9.194-3.473z"/><path fill="#333" d="M194.825 316.436c-1.84 1.838-2.656 3.677 1.634 3.064 7.354-1.226 13.277-8.17 15.116-10.418 1.225 2.45 2.043 4.698 1.43 6.537-1.634 4.494-21.45 14.91-24.31 9.396-1.43-3.268 2.247-6.332 6.13-8.58z"/><path fill="url(#h)" d="M234.25 333.798s5.72 11.235 3.064 15.32-24.513 9.194-25.738 3.27c-1.635-6.946 16.34-8.376 16.34-8.376s-2.247-7.15-3.472-8.988c3.676-2.043 9.805-1.226 9.805-1.226z"/><path fill="#333" d="M219.337 345.646c-2.247 1.43-3.472 2.86.817 3.27 7.354.613 14.912-4.698 17.16-6.537.613 2.656.817 5.107-.204 6.537-2.656 3.88-24.513 9.192-25.738 3.268-.613-3.268 3.676-5.3 7.966-6.537z"/><path fill="url(#i)" d="M231.798 211.645s-51.885-16.546-56.584 22.878c-4.902 39.425 23.696 75.58 23.696 75.58s6.128 1.226 10.418-7.15c0 0-19.202-59.85 10.418-49.025s27.985-36.36 12.052-42.284z"/><path fill="url(#j)" d="M291.036 239.63s-2.45 25.33-32.887 38.2c-30.437 12.665-18.998 59.647-18.998 59.647s-5.72 7.762-14.503 2.86c-12.46-10.622-26.555-109.08 23.696-116.23 38.198 1.838 42.692 15.524 42.692 15.524z"/><path fill="url(#k)" d="M295.94 139.537c-19.406-7.558-51.885 18.18-74.56 68.84 10.623 27.168 56.175 41.67 71.904 36.564-.204 0 42.08-89.675 2.656-105.404z"/><path fill="url(#l)" d="M226.69 197.346c1.02.817 2.247 2.247 2.45 3.88.204.613.204 1.226.204 1.84.205 1.43.205 2.655 1.43 3.676s2.86 1.43 4.494 1.635c1.84.408 3.677.612 5.31 1.838 1.43 1.226 2.247 2.86 2.86 4.494.613 1.43 1.226 2.656 2.247 3.677 1.43 1.226 3.473 1.43 5.515 1.634 2.247.204 4.494.41 6.333 1.84 1.225 1.02 2.042 2.246 2.86 3.472s1.634 2.656 2.86 3.268c1.634.818 3.472.41 5.3 0 1.022-.204 2.247-.408 3.27-.408 2.655 0 5.515 1.02 7.354 2.86.612.408 1.02 1.02 1.43 1.634.817.817 1.43 1.634 2.45 2.247 1.635 1.02 3.882.817 5.516.613l1.02-.205c1.84-.204 3.677-.408 5.516-.204l1.634.613c-.204.613-.613 1.226-.817 1.838-.41-.204-.817-.408-1.226-.408-1.634-.41-3.268 0-4.902.204l-1.022.204c-2.042.205-4.698.41-6.74-.817-1.226-.613-2.043-1.634-2.86-2.655-.41-.41-.818-1.022-1.43-1.43-1.635-1.43-3.677-2.247-5.924-2.247-1.022 0-2.043.204-3.064.408-2.043.41-4.3.818-6.333-.204-.204 0-.204 0-.204-.204-1.634-.817-2.656-2.45-3.677-3.88-.817-1.226-1.43-2.247-2.45-2.86-1.43-1.02-3.268-1.226-5.31-1.43-2.247-.204-4.698-.613-6.537-2.043-1.43-1.225-2.043-2.86-2.86-4.3-.612-1.43-1.225-2.86-2.45-3.676s-2.656-1.226-4.495-1.43c-2.043-.41-4.085-.817-5.515-2.247-1.634-1.634-1.84-3.268-2.043-4.903 0-.612 0-1.02-.204-1.634-.204-.817-.817-1.634-1.43-2.45l1.43-2.247z"/><path fill="url(#m)" d="M272.448 143c8.783-4.903 16.954-6.128 23.5-3.473 5.925 2.45 10 6.537 12.666 11.644-4.3-2.043-12.052-1.022-22.47 5.924-12.46 7.966-20.632-.818-13.686-14.095z"/><path fill="url(#n)" d="M305.948 147.095c-3.268-1.225-8.58-2.655-12.87 0-5.107 3.064-8.988 1.84-12.052-.817-1.838-1.634-1.226-4.698.204-7.15 5.516-1.634 10.214-1.43 14.503.205 4.494 1.838 7.763 4.494 10.214 7.762z"/><path fill="url(#o)" d="M290.22 162.006c-11.645 18.793 23.5 27.985 18.997 41.468-5.924 17.568-35.952 9.193-39.833 3.882-.204-1.84-1.02-7.354-3.064-8.58-2.656-1.634-2.45 2.45-2.45 2.45s-7.15-5.72-10.418-1.225c-2.247 2.86 1.226 8.374 6.944 11.642 2.247 1.226 5.31.817 5.31.817 10.83 14.504 29.825 18.59 43.102 14.913 10.214-2.86 20.02-12.87 22.47-20.223 3.88-12.052 2.043-22.878-5.515-34.726-10.214-16.138-21.45-18.998-27.372-17.16-5.107 1.43-8.17 6.74-8.17 6.74z"/><g fill="#f60"><path d="M317.796 223.084c-2.656-4.3-2.043-10 1.634-13.687 3.268-3.064 7.967-3.88 11.848-2.247-1.84 5.107-6.945 11.44-13.482 15.934zM205.038 174.06c6.74 2.655 14.708 5.3 22.674 6.945 0-6.74-5.72-12.46-12.46-12.46-4.3.203-7.967 2.246-10.214 5.515z"/></g><path fill="url(#p)" d="M208.102 258.627c40.556 2.043 81.19 2.043 121.745 0 2.247-.204 3.882-2.042 3.882-4.085v-69.248c0-2.45-2.043-4.3-4.3-4.085-40.446 2.04-80.28 2.04-120.93 0-2.45-.205-4.3 1.838-4.3 4.085v69.248c-.204 2.247 1.635 4.085 3.882 4.085z"/><path fill="url(#q)" d="M266.523 189.175c-17.77 0-35.543-.408-53.315-1.43-1.634 0-3.268 1.226-3.268 3.064v58.218c0 1.634 1.226 2.86 2.86 3.064 17.976.817 35.747 1.43 53.723 1.43 1.634 0 3.064-1.43 3.064-3.064V192.24c0-1.634-1.43-3.064-3.064-3.064z"/><path fill="url(#r)" d="M315.14 213.483l-33.9.205c-1.634 0-2.86 1.225-2.86 2.86v2.45c0 1.635 1.226 2.86 2.86 2.86l33.9-.204c1.634 0 2.86-1.225 2.86-2.86v-2.45c0-1.635-1.43-2.86-2.86-2.86z"/><path fill="url(#s)" d="M281.232 205.108l33.91-.408a2.79 2.79 0 0 0 2.86-2.86v-3.064c0-1.634-1.43-2.86-2.86-2.86-11.3.41-22.604.613-33.9.613-1.634 0-2.86 1.225-2.86 2.86v2.655c0 1.84 1.226 3.064 2.86 3.064z"/><path fill="url(#t)" d="M315.55 231.255l-34.726.41c-1.634 0-2.86 1.43-2.86 3.064v10.417c0 1.635 1.226 3.065 2.86 3.065 11.644 0 23.287-.41 34.93-.613 1.635 0 2.86-1.43 2.86-3.064v-10c-.204-2.042-1.43-3.472-3.064-3.268z"/><path fill="url(#u)" d="M310.85 236.77l-24.92.205a.96.96 0 0 0-1.022 1.02v3.474a.96.96 0 0 0 1.022 1.02c3.88 0 21.04-.203 24.92-.408a.96.96 0 0 0 1.021-1.021v-3.268a.96.96 0 0 0-1.021-1.022z"/><path fill="url(#v)" d="M219.337 202.657l-1.634 9.805c0 2.247 1.838 4.085 4.3 4.085s4.29-1.634 4.29-3.88l1.02-12.665-4.494-.204c-1.634 0-3.064 1.225-3.472 2.86z"/><path fill="url(#w)" d="M234.86 200.205v12.665c0 2.247 1.84 4.086 4.3 4.086s4.3-1.635 4.3-3.882l-1.023-12.664-7.558-.205z"/><path fill="url(#x)" d="M257.74 203.474c-.41-1.43-1.84-2.656-3.473-2.656l-4.698-.204 2.043 12.87c0 2.247 1.838 4.085 4.3 4.085s4.29-1.634 4.29-3.88l-2.45-10.214z"/><path fill="url(#y)" d="M256.106 219.203c-1.635 0-3.065-.817-4.3-1.84-1.022 1.022-2.656 1.634-4.3 1.634s-3.064-.817-4.3-1.838c-1.02 1.02-2.655 1.634-4.3 1.634s-3.063-.817-4.29-1.838c-1.02 1.02-2.655 1.634-4.3 1.634s-3.064-.817-4.3-1.84c-1.02 1.022-2.655 1.635-4.3 1.635-.612 0-1.225-.205-1.837-.41v18.59c0 3.472 2.655 6.128 6.128 6.332l25.738.613c3.268 0 6.128-2.656 6.128-5.924v-18.59c-.613.205-1.226.205-1.838.205z"/><path fill="url(#z)" d="M249.773 200.613l-7.353-.204 1.022 12.664c0 2.247 1.838 4.086 4.3 4.086s4.3-1.634 4.3-3.88l-2.25-12.665z"/><path fill="url(#AA)" d="M234.86 212.87v-12.667l-7.353-.203-1.022 12.665c0 2.247 1.84 4.085 4.3 4.085 2.043 0 4.085-1.634 4.085-3.88z"/><path fill="url(#AB)" d="M245.892 226.76l-2.86-.41c-.408 0-1.02-.408-1.225-.817l-1.226-2.656c-.613-1.225-2.247-1.225-2.656 0l-1.225 2.656c-.204.41-.613.817-1.226.817l-2.86.41c-1.225.204-1.838 1.634-.817 2.655l2.043 2.043c.41.408.613.817.41 1.43l-.41 2.86a1.54 1.54 0 0 0 2.247 1.634l2.656-1.226a1.75 1.75 0 0 1 1.43 0l2.655 1.43c1.02.613 2.45-.204 2.247-1.634l-.41-2.86c0-.41 0-1.02.41-1.43l2.043-2.043c.612-1.02 0-2.655-1.226-2.86z"/><g opacity=".8"><path fill="url(#AC)" d="M353.34 186.723v66.39c0 3.064 2.45 5.3 5.515 5.3 14.912-.612 56.788-4.3 73.947-22.47 2.042-2.042 3.064-4.902 3.064-7.557v-68.023s-3.882 21.45-77.216 21.04c-2.86 0-5.3 2.247-5.3 5.31z"/><path fill="url(#AD)" d="M400.118 142.192v36.36c33.5-5.72 35.952-18.18 35.952-18.18s3.472-17.158-30.845-22.47c-2.656-.408-5.107 1.635-5.107 4.3z"/><path fill="url(#AE)" d="M361.92 192.852v53.52c0 2.042 1.838 3.676 3.88 3.472 9.806-1.02 35.34-4.085 49.23-11.44 1.226-.613 1.838-1.838 1.838-3.268v-47.8c0-2.247-2.247-4.085-4.494-3.472-6.128 1.634-19.405 4.085-47.186 5.3-1.84.205-3.27 1.84-3.27 3.677z"/><path fill="url(#AF)" d="M435.864 208.377c-1.838 2.042-5.107 4.698-10.418 7.15-.612.407-1.224 1.02-1.224 1.633v10.622c0 1.226 1.225 1.84 2.247 1.022 2.45-1.43 6.332-3.677 9.396-6.537v-13.9z"/><path fill="url(#AG)" d="M435.864 213.688c-1.838 1.43-4.085 3.064-7.354 4.698-.612.408-1.02 1.02-1.02 1.634v2.247c0 1.226 1.225 1.634 2.246 1.02 1.634-1.02 3.88-2.247 5.924-4.085v-5.515h.204z"/><path fill="url(#AH)" d="M424.425 202.657v4.085c0 1.226 1.226 1.84 2.247 1.226 2.45-1.226 6.332-3.268 9.397-5.924v-7.762c-1.84 2.043-5.107 4.3-10.418 6.74-.817.4-1.226 1.022-1.226 1.635z"/><path fill="url(#AI)" d="M425.446 187.132c-.612.205-1.224.818-1.224 1.635v4.085c0 1.226 1.225 1.838 2.247 1.43 2.45-1.02 6.332-3.064 9.396-5.515V180.8c-1.84 2.043-5.108 4.3-10.42 6.332z"/><path fill="url(#AJ)" d="M406.86 198.57c-.205-1.224-1.43-2.042-2.656-1.838l-3.88.41 1.634 11.03c0 2.043 1.43 3.27 3.473 2.86 1.838-.41 3.472-2.043 3.472-4.085l-2.042-8.376z"/><path fill="url(#AK)" d="M379.894 211.645l1.023-12.052-4.085.613c-1.634.204-2.86 1.634-3.27 3.064l-1.634 9.6c0 2.043 1.84 3.473 3.88 3.065 2.247-.205 4.086-2.043 4.086-4.3z"/><path fill="url(#AL)" d="M391.13 213.483c2.042-.408 3.677-2.247 3.677-4.3l-.817-11.44-6.537.817v11.644c0 2.247 1.634 3.677 3.677 3.268z"/><path fill="url(#AM)" d="M401.752 211.85c-.817 1.02-2.043 1.84-3.473 2.043s-2.655-.204-3.472-.817c-1.022 1.02-2.247 1.838-3.677 2.042s-2.656-.204-3.677-.817c-1.02 1.022-2.247 1.84-3.677 2.247-1.43.205-2.86-.204-3.88-.817-1.022 1.227-2.45 2.043-3.88 2.247h-1.634v17.363c0 3.064 2.45 5.107 5.515 4.494l21.857-4.902c2.655-.613 4.902-3.473 4.902-6.333l.205-16.137c-.41.204-1.022.408-1.43.613-1.634 0-2.656-.41-3.677-1.226z"/><path fill="url(#AN)" d="M400.322 197.14l-6.333.817.817 11.44c0 2.042 1.634 3.268 3.473 3.063 1.838-.408 3.473-2.247 3.473-4.085l-1.43-11.235z"/><path fill="url(#AO)" d="M387.453 210.623V198.98l-6.74.818-1.022 12.052c0 2.042 1.634 3.472 3.88 3.064s3.882-2.452 3.882-4.3z"/><path fill="url(#AP)" d="M396.85 221.04h-2.45c-.41 0-.817-.205-1.022-.613l-1.02-2.247c-.4-1.02-1.84-.613-2.248.408l-1.226 2.656a2.46 2.46 0 0 1-1.02 1.021l-2.452.817c-1.022.41-1.634 1.84-.817 2.452l1.838 1.43c.41.204.41.612.41 1.225l-.41 2.656c-.204 1.225 1.022 1.838 1.84 1.02l2.247-1.634c.408-.204.817-.41 1.225-.204l2.247.817c1.022.408 2.043-.817 1.84-1.84l-.41-2.45c0-.4 0-.818.41-1.227l1.838-2.247c.613-.817.204-2.042-.817-2.042z"/></g><g opacity=".8"><path fill="url(#AQ)" d="M181.138 186.928v65.98c0 3.063-2.655 5.72-5.72 5.515-15.524-.818-58.216-4.494-74.762-23.287-1.43-1.635-2.043-3.677-2.043-5.924v-68.84s3.88 21.45 77 21.04a5.49 5.49 0 0 1 5.515 5.516z"/><path fill="url(#AR)" d="M134.565 142.6v35.95c-33.705-5.72-35.952-18.18-35.952-18.18s-3.473-17.158 30.436-22.47c2.86-.408 5.516 1.635 5.516 4.7z"/><path fill="url(#AS)" d="M156.42 211.032c-8.783-1.022-21.653-3.065-35.952-6.537-1.838-.41-3.675 1.02-3.675 2.86v3.677c0 1.225.817 2.45 2.042 2.86 7.967 2.45 21.04 5.72 36.973 6.945 1.635.204 3.27-1.226 3.27-2.86v-4.086c0-1.43-1.226-2.655-2.656-2.86z"/><path fill="url(#AT)" d="M116.793 223.287v9.193c0 1.226.612 2.247 1.634 2.656 10.826 4.902 23.9 7.15 36.973 8.987 1.838.205 3.268-1.225 3.268-2.86l.204-10.213c0-1.43-1.02-2.655-2.45-2.86-9.397-1.225-23.492-3.677-35.748-7.762-2.043-.613-3.88.817-3.88 2.86z"/><path fill="url(#AU)" d="M158.872 200.818v-4.903c0-1.634-1.225-2.86-2.86-3.064-15.114-1.02-26.554-3.064-35.338-6.128-1.84-.613-3.88.817-3.88 2.656l-.205 4.698c0 1.226.817 2.45 2.043 2.86 6.74 2.247 19.2 5.515 36.973 6.536 1.84.41 3.268-.817 3.268-2.655z"/><path fill="url(#AV)" d="M122.308 228.2v1.634c0 .613.408 1.226 1.02 1.635 2.45 1.02 10 3.677 26.35 6.74 1.022.205 2.043-.612 2.043-1.634v-2.86c0-.816-.613-1.634-1.43-1.634-4.494-.612-18.793-3.064-25.738-5.3-1.226-.613-2.247.204-2.247 1.43z"/><path fill="url(#AW)" d="M98.613 172.22v51.476l4.3 3.27c1.43 1.02 3.676 0 3.676-1.84v-43.1c0-.614-.408-1.227-.817-1.84-2.86-2.246-5.3-5.3-7.15-7.966z"/></g><path fill="#d2f2ff" d="M356.403 102.36c7.763 3.676 16.546 4.698 24.92 4.29 16.138-.613 33.092-6.945 42.693-21.04 5.31-7.967 7.967-18.384 5.72-27.78-2.247-9.602-10-17.568-18.998-17.977-6.74-.408-13.277 3.473-18.793 7.763S381.12 57.01 374.992 59.87c-7.15 3.268-15.116 3.473-22.47 6.537-6.128 2.655-14.503 10.622-13.073 18.793 1.43 7.762 11.03 14.3 16.954 17.158z"/><path fill="url(#AX)" d="M376.218 27.596s13.48.41 18.997 10.214l7.558-9.805-3.064-10s-19.406 1.84-23.49 9.6z"/><path fill="url(#AY)" d="M411.76 44.346s-4.3-8.988-16.546-6.536l.817-16.546s12.46-4.086 18.793.204c6.332 4.494 5.107 16.546 5.107 16.546l-8.17 6.332z"/><path fill="url(#AZ)" d="M431.984 50.474s-5.107-8.17-20.223-6.128l8.17-11.03c0 .204 14.708 6.536 12.053 17.158z"/><path fill="url(#Aa)" d="M409.105 11.254s-4.698-7.15-17.567-.204-15.116 16.546-15.116 16.546 8.375-9.192 16.546 0l16.137-16.342z"/><path fill="url(#Ab)" d="M418.9 14.114l.817 23.9s12.665-1.226 12.052 12.256c6.74-14.3.41-35.135-12.87-36.156z"/><path fill="url(#Ac)" d="M392.764 27.392S411.148 17.8 419.727 37.8c7.15-21.45 1.226-26.964-3.064-29.007-4.084-1.633-15.933-2.247-23.9 18.59z"/><path fill="url(#Ad)" d="M389.086 76.417l42.897-25.942h-.204l-42.897 25.738z"/><path fill="url(#Ae)" d="M389.086 76.417l22.674-32.07h-.204l-22.674 31.866z"/><path fill="url(#Af)" d="M389.086 76.417l6.333-38.81h-.205l-6.332 38.607z"/><path fill="url(#Ag)" d="M388.882 76.417l.204-.204-12.664-48.82-.205.204z"/><path fill="url(#Ah)" d="M389.086 76.417l3.882-48.82-.205-.205-3.88 48.82z"/><path fill="url(#Ai)" d="M389.086 76.417l30.845-38.403h-.204l-30.845 38.2z"/><circle cx="431.983" cy="50.475" r="2.247" fill="url(#Aj)"/><circle cx="419.727" cy="38.014" r="2.247" fill="url(#Ak)"/><circle cx="411.76" cy="44.347" r="2.247" fill="url(#Al)"/><circle cx="392.763" cy="27.392" r="2.247" fill="url(#Am)"/><circle cx="395.214" cy="37.606" r="2.247" fill="url(#An)"/><circle cx="376.217" cy="27.596" r="2.247" fill="url(#Ao)"/><path fill="#90bc3f" d="M374.38 50.066c0-.204 0-.613.408-.817.204-.204.612 0 .817.204 0 0 .613-1.226.613-.408v1.43l-1.635.816c-.204-.204-.817-.408-1.225-.817-.205-.408 1.02-.408 1.02-.408"/><path fill="url(#Ap)" d="M380.915 64.365l2.656-1.43c.613-.41 1.225-1.43.613-2.043l-4.3-8.375c-.204-.41-.613-.613-1.226-.817l-1.838-.204c-.613 0-1.226.204-1.634.612l-.818 1.635c-.204.408-.204.817 0 1.43l4.3 8.375c.817.817 1.634 1.02 2.247.817z"/><path fill="url(#Aq)" d="M373.153 52.72c-.204-.613-.613-1.43-.613-1.43l2.247-.204c0-.204.204-.408.41-.613s.408-.204.817-.204l1.43-1.838s.612.612.817 1.43l.408 1.43-2.043.204c0 .204-.204.408-.408.612s-.613.205-.817 0l-1.43 1.84c.204.204-.204-.613-.817-1.226"/><path fill="url(#Ar)" d="M376.83 69.063l6.128-5.924c.41-.41.41-.817 0-1.43l-5.924-6.128c-.408-.41-.817-.41-1.43 0l-6.128 5.924c-.408.408-.408.817 0 1.43l5.924 6.128c.613.204 1.226.204 1.43 0z"/><path fill="url(#As)" d="M379.078 67.02l1.84-1.84-6.947-7.556-2.04 1.836z"/><path fill="url(#At)" d="M368.865 59.87c0 .612.204.612.204.817.817.204 2.655-1.226 3.268-1.634.204 0 .613 0 .817-.205s.41-.613.204-.817c.41-.408 2.043-2.043 1.635-3.064-.205-.204-.41-.407-.817-.407h-.41c-1.43.408-1.226 2.45-.817 3.268-.204 0-.204 0-.41.204-.204 0-.204.204-.204.41-.613 0-2.655-.41-3.268.817-.204.204-.204.204-.204.613m5.515-4.29c0 .204-.41.817-.817 1.634 0-.613 0-1.634.408-1.838h.205c.204 0 .204 0 .204.204m-4.698 4.494v-.41c.204-.408 1.225-.408 1.838-.408-1.02.613-1.634 1.02-1.838.817"/><path fill="url(#Au)" d="M382.346 64.16l8.17-2.45c.4-.204.614-.613.614-1.226l-2.452-8.17c-.204-.4-.612-.613-1.225-.613l-8.17 2.45c-.41.205-.613.615-.613 1.228l2.45 8.17c.41.41.817.613 1.226.613z"/><path fill="url(#Av)" d="M385 63.14l2.86-.817-3.268-9.805-2.45.613z"/><path fill="url(#Aw)" d="M379.486 52.108a1.3 1.3 0 0 0 0 1.226c.41.613 2.656.204 3.473 0 .204.204.613.408.817.204.204 0 .408-.408.408-.613.613-.204 2.656-1.225 2.656-2.042 0-.205 0-.613-.41-.817-.204-.205-.204-.205-.408-.205-1.43-.204-2.044 1.634-2.247 2.247h-.41c-.204.204-.408.204-.408.41-.41-.41-2.247-1.634-3.27-.613 0-.204-.204-.204-.204.204m6.537-1.225c-.204.204-.613.612-1.634.817.408-.613.817-1.43 1.43-1.43h.204v.613m-6.128 1.838c0-.204 0-.41.204-.41.204-.408 1.226 0 1.838.41-1.02.204-1.838.204-2.042 0"/><path fill="url(#Ax)" d="M390.72 54.56L370.7 64.773c-.612.204-.612 1.226-.408 1.634 2.248 3.064 8.58 11.848 11.644 21.244.205.613.817.818 1.634.613l21.653-12.256c.204-.204.204-.204 0-.41-1.43-1.225-7.354-6.536-12.665-20.222-.612-1.022-1.225-1.226-1.838-.817z"/><path fill="url(#Ay)" d="M405.223 75.395c-1.43-1.225-7.354-6.536-12.665-20.223-.408-.817-1.225-1.225-1.634-.61l-5.3 2.655v1.02c2.246 3.064 8.578 11.847 11.642 21.244.204.408.408.612.612.612l7.15-4.085c.408-.204.408-.204.204-.613z" opacity=".3" style="mix-blend-mode:multiply"/><path fill="url(#Az)" d="M395.827 80.093c-1.022-.408-1.84-.612-2.86-.612-1.226 0-2.45.408-3.677 1.02-3.88 2.043-4.698-.204-4.698-5.515s-10.214-5.516-11.235-9.397c-.204-.817 1.43-1.634 2.247-2.043s1.225-1.43 1.225-1.838l-5.923 3.064c-.613.204-.613 1.226-.41 1.634 2.247 3.064 8.58 11.848 11.644 21.244.204.613.817.818 1.634.613l13.686-7.762-1.634-.41z" opacity=".2" style="mix-blend-mode:multiply"/></g><path stroke="#fff" d="M387.248 84.588s-8.988-2.247-8.988 4.085c.204 6.333 11.03 9.397 11.03 9.397" class="C D E"/><g class="B"><g fill="#caf3ff"><circle cx="377.035" cy="70.084" r="1"/><circle cx="385.614" cy="66.203" r="1"/><path d="M382.96 76.213c-.613 0-1.022-.205-1.635-.4-2.042-.817-3.064-3.268-3.064-3.268 0-.205 0-.613.205-.613s.612 0 .612.204c0 0 .817 2.043 2.452 2.86.817.4 1.838.4 2.86-.204 1.02-.4 1.634-1.022 2.042-2.043.613-1.838-.408-3.88-.408-3.88-.205-.204 0-.613.204-.613.204-.204.613 0 .613.204 0 0 1.225 2.452.408 4.7-.408 1.225-1.225 2.042-2.655 2.655-.205.204-1.022.4-1.635.4zm4.9 21.857s-.4 0-.613-.205c0-.408.4-1.225.4-1.225s.204 0 .817.204c.408.613 0 1.226-.613 1.226z"/></g><path fill="url(#BA)" d="M387.86 98.07s.613-.41.408-1.226c.613 0 1.226.204 1.634.41.205.204.41.408.205.817l-1.43 3.064c-.204.204-.41.408-.817.408-.205 0-.41-.204-.817-.408-.613-.817.817-3.064.817-3.064z"/></g><path stroke="#fff" d="M393.172 80.502s-9.192 1.634-6.332 7.354 13.9 3.88 13.9 3.88" class="C D E"/><g class="B"><path fill="#caf3ff" d="M399.504 92.76h-.817c-.204-.41 0-1.43 0-1.43s.613-.205 1.226 0c.613.612 0 1.225-.41 1.43z"/><path fill="url(#BB)" d="M399.505 92.758s.612-.612.204-1.43c.613-.203 1.226-.203 1.634-.203s.613.41.41.613l-.41 3.268c0 .205-.204.613-.613.613-.204 0-.613 0-.817-.204-1.225 0-.408-2.656-.408-2.656z"/><path fill="url(#BC)" d="M379.894 81.932c14.503-2.655 20.02-12.256 20.223-12.665s0-.817-.204-1.225c-.41-.205-.817 0-1.226.204 0 0-5.72 9.805-20.427 12.052-.41 0-.613.41-.613.817s.41.613.817.613c.41.408 1.022.408 1.43.204z"/><path fill="#fff" d="M401.547 69.88c-1.02-2.86-5.3-4.3-5.515-4.3-.41-.204-.817 0-.817.41-.205.41 0 .613.408.817 1.022.41 4.086 1.84 4.7 3.677.204.817 0 1.838-.613 2.656-1.022 1.43-1.84 1.225-2.043 1.02-1.838-.612-4.085-4.493-4.085-8.17.817-1.02 1.838-3.473 0-4.3-2.043-.817-2.656 2.86-1.226 4.494 0 4.086 2.247 8.17 4.698 8.988.204 0 .613.205.817.205.817 0 1.84-.41 2.86-1.84 1.02-1.226 1.02-2.45.817-3.677z"/><path fill="url(#BD)" d="M405.224 75.804c-6.128-1.02-5.516-.408-6.128 1.43-.41 1.226-1.022 2.247-1.226 3.064l7.15-4.085.204-.41z" opacity=".3" style="mix-blend-mode:multiply"/></g><path stroke="#fff" d="M379.077 77.642S368.047 76.212 361.92 66" class="C D E"/><g class="B"><path fill="#fff" d="M362.736 67.225s1.225-3.677-1.84-4.086c-2.86-.408-1.43 5.107 1.84 4.086z"/><path fill="url(#BE)" d="M353.135 74.578l-22.47-7.354c-3.677-1.225-5.72-5.106-4.494-8.783l5.924-17.976c1.225-3.677 5.106-5.72 8.783-4.494l22.47 7.354c3.677 1.225 5.72 5.106 4.494 8.783l-5.924 17.976c-1.225 3.677-5.107 5.72-8.783 4.494z"/><path fill="url(#BF)" d="M357.016 48.635c0-.817-.41-1.634-1.226-1.838l-2.45-.817-1.022 6.537c-.408 1.02.205 2.247 1.43 2.655s2.452-.204 2.656-1.225l.613-5.312z"/><path fill="url(#BG)" d="M339.857 48.43l2.655-5.924-2.247-.817c-.817-.204-1.838 0-2.042.817L335.77 47c-.408 1.022.205 2.247 1.43 2.656 1.022.408 2.247-.204 2.656-1.226z"/><path fill="url(#BH)" d="M345.576 52.312c1.226.41 2.452-.204 2.656-1.225l1.43-6.333-3.677-1.225-2.043 6.128c-.204 1.225.41 2.247 1.634 2.655z"/><path fill="url(#BI)" d="M351.705 54.56c-.613.41-1.635.41-2.452.205s-1.43-.817-1.838-1.43c-.613.408-1.634.408-2.45.204s-1.43-.817-1.84-1.43c-.613.41-1.634.41-2.45.204s-1.43-.817-1.84-1.43c-.612.41-1.634.41-2.45.205-.4-.205-.614-.205-.818-.41l-3.064 8.988c-.613 1.634.41 3.473 2.043 3.88l12.46 4.086c1.634.613 3.473-.41 3.88-2.043l3.065-8.988c-.41 0-.613 0-1.022-.204-.204-.613-.817-1.226-1.225-1.84z"/><path fill="url(#BJ)" d="M353.34 45.98l-3.677-1.225-1.43 6.332c-.408 1.022.204 2.247 1.43 2.656s2.45-.205 2.656-1.226l1.02-6.537z"/><path fill="url(#BK)" d="M344.147 49.862l2.042-6.13-3.676-1.225-2.656 5.924c-.408 1.02.204 2.247 1.43 2.655 1.226.204 2.45-.204 2.86-1.225z"/><path fill="url(#BL)" d="M347.415 58.032l-1.43-.612c-.204-.205-.408-.41-.408-.613l-.205-1.43c0-.613-.817-.817-1.43-.41L342.922 56c-.205.204-.4.204-.614.204l-1.43-.204c-.612-.205-1.225.613-.817 1.225l.613 1.43c.204.205.204.41 0 .817l-.613 1.43c-.204.613.205 1.226.817 1.226l1.43-.204c.205 0 .613 0 .613.204l1.022 1.02c.408.41 1.225.204 1.43-.408l.204-1.43c0-.204.204-.41.408-.613l1.43-.613c.613-.817.613-1.634 0-2.043z"/><circle cx="353.543" cy="61.096" r="7.354" fill="url(#BM)"/><g fill="#fff"><path d="M352.113 65.182c-.383-.195-.62-.592-.613-1.022l2.247-6.536c.195-.383.592-.62 1.022-.613.408.204.613.613.613 1.02l-2.247 6.537c0 .613-.613.817-1.022.613z"/><path d="M356.607 63.14l-6.535-2.247c-.383-.195-.62-.59-.613-1.02 0-.41.613-.613 1.02-.613l6.537 2.247c.408.204.613.613.613 1.02-.195.383-.592.62-1.022.613z"/></g></g></g></g></svg>