<svg xmlns="http://www.w3.org/2000/svg" width="264" height="235">
  <defs>
    <linearGradient id="a" x1="43.521%" x2="55.903%" y1="19.422%" y2="110.224%">
      <stop offset=".327%" stop-color="#FF9D15"/>
      <stop offset="99.97%" stop-color="#F60"/>
    </linearGradient>
    <linearGradient id="b" x1="18.849%" x2="62.282%" y1="-6.747%" y2="86.677%">
      <stop offset=".774%" stop-color="#00BAA7"/>
      <stop offset="100%" stop-color="#009484"/>
    </linearGradient>
    <linearGradient id="c" x1="22.336%" x2="71.31%" y1="58.412%" y2="32.072%">
      <stop offset="0%" stop-color="#F47A7F"/>
      <stop offset="99.97%" stop-color="#ED1C24"/>
    </linearGradient>
    <linearGradient id="d" x1="25.681%" x2="64.593%" y1="96.433%" y2="7.269%">
      <stop offset="0%" stop-color="#F47A7F"/>
      <stop offset="17.69%" stop-color="#F37176"/>
      <stop offset="46.57%" stop-color="#F2595F"/>
      <stop offset="82.83%" stop-color="#EF3138"/>
      <stop offset="99.97%" stop-color="#ED1C24"/>
    </linearGradient>
    <linearGradient id="e" x1=".002%" x2="99.999%" y1="50.009%" y2="50.009%">
      <stop offset=".248%" stop-color="#00B3FF"/>
      <stop offset="99.83%" stop-color="#0073AA"/>
    </linearGradient>
    <linearGradient id="f" x1="99.942%" x2=".937%" y1="55.705%" y2="45.695%">
      <stop offset=".248%" stop-color="#00B3FF"/>
      <stop offset="99.83%" stop-color="#0073AA"/>
    </linearGradient>
    <linearGradient id="g" x1="100.015%" x2=".975%" y1="55.651%" y2="45.631%">
      <stop offset=".248%" stop-color="#00B3FF"/>
      <stop offset="99.83%" stop-color="#0073AA"/>
    </linearGradient>
    <linearGradient id="h" x1="100.02%" x2=".974%" y1="55.584%" y2="45.564%">
      <stop offset=".248%" stop-color="#00B3FF"/>
      <stop offset="99.83%" stop-color="#0073AA"/>
    </linearGradient>
    <linearGradient id="i" x1="95.252%" x2="2.218%" y1="57.388%" y2="46.073%">
      <stop offset=".327%" stop-color="#FF9D15"/>
      <stop offset="99.97%" stop-color="#F60"/>
    </linearGradient>
    <linearGradient id="j" x1="51.601%" x2="48.893%" y1="14.46%" y2="137.69%">
      <stop offset=".774%" stop-color="#00BAA7"/>
      <stop offset="100%" stop-color="#009484"/>
    </linearGradient>
    <linearGradient id="k" x1="53.458%" x2="38.149%" y1="11.836%" y2="143.833%">
      <stop offset=".774%" stop-color="#00BAA7"/>
      <stop offset="100%" stop-color="#009484"/>
    </linearGradient>
    <linearGradient id="l" x1="-3.411%" x2="99.574%" y1="78.334%" y2="21.275%">
      <stop offset=".327%" stop-color="#FF9D15"/>
      <stop offset="99.97%" stop-color="#F60"/>
    </linearGradient>
    <linearGradient id="m" x1="-26.326%" x2="59.994%" y1="107.958%" y2="34.139%">
      <stop offset=".327%" stop-color="#FF9D15"/>
      <stop offset="56.42%" stop-color="#F60"/>
      <stop offset="100%" stop-color="#BF4500"/>
    </linearGradient>
    <linearGradient id="n" x1="43.453%" x2="61.432%" y1="9.623%" y2="84.41%">
      <stop offset=".187%" stop-color="#8048A4"/>
      <stop offset="100%" stop-color="#653983"/>
    </linearGradient>
    <linearGradient id="o" x1="-166.574%" x2="191.785%" y1="136.268%" y2="-11.587%">
      <stop offset=".327%" stop-color="#FF9D15"/>
      <stop offset="99.97%" stop-color="#F60"/>
    </linearGradient>
    <linearGradient id="p" x1="28.765%" x2="92.03%" y1="70.927%" y2="8.523%">
      <stop offset=".327%" stop-color="#FF9D15"/>
      <stop offset="99.97%" stop-color="#F60"/>
    </linearGradient>
    <linearGradient id="q" x1="127.268%" x2="-56.101%" y1="25.045%" y2="78.663%">
      <stop offset="0%" stop-color="#F47A7F"/>
      <stop offset="99.97%" stop-color="#ED1C24"/>
    </linearGradient>
    <linearGradient id="r" x1="125.41%" x2="-81.333%" y1="11.813%" y2="102.098%">
      <stop offset="0%" stop-color="#F47A7F"/>
      <stop offset="99.97%" stop-color="#ED1C24"/>
    </linearGradient>
    <linearGradient id="s" x1="264.227%" x2="35.246%" y1="-49.494%" y2="56.754%">
      <stop offset=".327%" stop-color="#FF9D15"/>
      <stop offset="99.97%" stop-color="#FFD800"/>
    </linearGradient>
    <linearGradient id="t" x1="205.599%" x2="39.189%" y1="66.718%" y2="48.482%">
      <stop offset=".327%" stop-color="#FF9D15"/>
      <stop offset="99.97%" stop-color="#FFD800"/>
    </linearGradient>
    <linearGradient id="u" x1="-7.786%" x2="57.341%" y1="-64.412%" y2="89.558%">
      <stop offset="0%" stop-color="#F47A7F"/>
      <stop offset="99.97%" stop-color="#ED1C24"/>
    </linearGradient>
    <linearGradient id="v" x1="48.93%" x2="59.376%" y1="29.089%" y2="144.187%">
      <stop offset="0%" stop-color="#F47A7F"/>
      <stop offset="99.97%" stop-color="#ED1C24"/>
    </linearGradient>
    <linearGradient id="w" x1="126.89%" x2="-48.393%" y1="148.117%" y2="-47.775%">
      <stop offset="0%" stop-color="#F47A7F"/>
      <stop offset="99.97%" stop-color="#ED1C24"/>
    </linearGradient>
    <linearGradient id="x" x1="119.425%" x2="1.463%" y1="-18.315%" y2="100.453%">
      <stop offset=".261%" stop-color="#C8F1FF"/>
      <stop offset="99.58%" stop-color="#4CD3FF"/>
    </linearGradient>
    <linearGradient id="y" x1="67.066%" x2="31.914%" y1="-9.466%" y2="133.366%">
      <stop offset=".261%" stop-color="#C8F1FF"/>
      <stop offset="99.58%" stop-color="#4CD3FF"/>
    </linearGradient>
    <linearGradient id="z" x1="48.329%" x2="53.102%" y1="-44.954%" y2="242.44%">
      <stop offset=".261%" stop-color="#C8F1FF"/>
      <stop offset="99.58%" stop-color="#4CD3FF"/>
    </linearGradient>
    <linearGradient id="A" x1="63.061%" x2="51.118%" y1="180.899%" y2="61.083%">
      <stop offset=".248%" stop-color="#00B3FF"/>
      <stop offset="99.83%" stop-color="#0073AA"/>
    </linearGradient>
    <linearGradient id="B" x1="71.732%" x2="51.807%" y1="120.1%" y2="56.074%">
      <stop offset=".248%" stop-color="#00B3FF"/>
      <stop offset="99.83%" stop-color="#0073AA"/>
    </linearGradient>
    <linearGradient id="C" x1="64.417%" x2="51.241%" y1="207.729%" y2="63.774%">
      <stop offset=".248%" stop-color="#00B3FF"/>
      <stop offset="99.83%" stop-color="#0073AA"/>
    </linearGradient>
    <linearGradient id="D" x1="80.904%" x2="28.168%" y1="7.231%" y2="122.137%">
      <stop offset=".327%" stop-color="#FF9D15"/>
      <stop offset="99.97%" stop-color="#F60"/>
    </linearGradient>
    <linearGradient id="E" x1="32.734%" x2="62.878%" y1="-11.549%" y2="73.91%">
      <stop offset=".327%" stop-color="#FF9D15"/>
      <stop offset="99.97%" stop-color="#F60"/>
    </linearGradient>
    <linearGradient id="F" x1="79.086%" x2="43.075%" y1="-15.004%" y2="83.431%">
      <stop offset=".774%" stop-color="#00BAA7"/>
      <stop offset="100%" stop-color="#009484"/>
    </linearGradient>
  </defs>
  <g fill="none" fill-rule="evenodd" transform="translate(3.52 10.575)">
    <path fill="#DAF3FF" fill-rule="nonzero" d="M151.463 13.386C91.633-9.607 26.405-2.002 29.052 38.324c2.647 40.326-2.103 31.142-19.468 59.032-31.21 50.13 24.377 97.12 118.704 98.183 49.561.554 57.277-20.022 58.14-44.556.77-22.165-6.317-27.514 9.03-43.475 32.319-33.624 1.578-76.61-43.995-94.122z"/>
    <ellipse cx="14.011" cy="68.914" fill="#DAF3FF" fill-rule="nonzero" rx="10.43" ry="6.301" transform="rotate(-59.999 14.011 68.914)"/>
    <g fill-rule="nonzero">
      <path fill="url(#a)" d="M56.414 73.057c-1.98-8.244-9.65-7.351-26.837-17.512-21.054-12.446-2.919-50.3-1.286-53.327L21.881.01c-48.577 55.329.009 93.935 16.107 94.696 16.126.761 20.022-15.002 18.426-21.648z" transform="translate(71.339 28.2)"/>
      <path fill="url(#b)" d="M29.577 55.545c17.187 10.161 24.856 9.268 26.837 17.512 1.596 6.646-2.3 22.4-18.436 21.648C22.913 94-20.585 60.141 13.676 10.472c4.121-.536 7.585 1.062 9.997 2.782-4.487 12.99-8.636 33.699 5.904 42.29z" transform="translate(71.339 28.2)"/>
      <path fill="#009484" d="M85.024 38.672c4.121-.536 7.585 1.062 9.997 2.782a88.149 88.149 0 00-2.46 8.357c-2.177-2.454-5.913-5.452-11.16-5.415a92.604 92.604 0 013.623-5.724zM72.362 70.96c-.6 7.098.357 13.602 2.346 19.43 3.239-1.325 5.717-4.258 6.233-7.97.77-5.537-3.07-10.642-8.58-11.46z"/>
    </g>
    <path fill="url(#c)" fill-rule="nonzero" d="M122.196 97.431a3.604 3.604 0 011.717-.893c3.905-.846 19.243-3.055 32.535 10.64 15.375 15.84 40.447 7.314 49.664 18.773 8.664 10.772 22.575 43.033 45.028 54.491 2.262 1.157 2.779 4.136.986 5.941-9.866 9.898-29.352 19.928-37.256 14.128-8.983-6.589-11.217 5.838-19.233 6.383-6.43.432-15.62.282-22.932 5.085-2.328 1.533-5.444.047-5.697-2.735-1.258-13.856-4.187-35.325-31.258-64.146-28.348-30.155-16.858-44.546-13.554-47.667z"/>
    <path fill="url(#d)" fill-rule="nonzero" d="M153.556 104.481c-9.95.611-14.155 8.422-13.93 8.667.17.188-.337 21.441-.694 35.457 15.967 17.925 22.566 32.88 25.55 44.79 1.474-2.321 3.06-5.555 3.352-8.798.563-6.213 5.885 12.427 5.866 0-.019-12.427-1.398-38.906-1.164-42.948.479-8.489 13.667 13.404 15.864 12.586 2.525-.94-.075-10.735-10.57-25.953-3.745-5.424-6.767-9.184-8.495-13.113-4.637-1.608-9.058-4.042-12.887-7.98a42.5 42.5 0 00-2.892-2.708z"/>
    <path fill="url(#e)" fill-rule="nonzero" d="M77.28 189.87c15.226 3.46 32.347 5.462 51.008 5.669 7.077.075 13.291-.282 18.764-1.015l-.958-23.886H80.547c0 .01-2.947 4.38-3.267 19.233z"/>
    <g fill-rule="nonzero">
      <path fill="#FFF" d="M123.378 96.294c4.159-1.382 9.04-1.946 12.898-1.072 4.317.987 8.391 3.046 11.489 5.696 5.172 4.428 8.373 10.707 10.954 17.729l-18.839 27.927-17.506 46.69s-19.759-1.748-31.173-11.994c3.914-24.873 14.305-70.688 32.177-84.976z"/>
      <path fill="url(#f)" d="M.357 18.208a152.53 152.53 0 011.333-3.826c15.262 7.031 28.995 8.61 29.155 8.63 1.145.13 2.036 1.099 1.99 2.18-.038 1.09-1.005 1.88-2.16 1.767-.31-.028-3.163-.338-7.612-1.288-5.641-1.193-13.892-3.468-22.706-7.463z" transform="translate(102.315 114.68)"/>
      <path fill="url(#g)" d="M32.112 15.237c1.126.141 2 1.09 1.962 2.134-.038 1.053-.977 1.814-2.112 1.683-.3-.038-3.098-.357-7.472-1.326a113.948 113.948 0 01-21.43-7.087c.47-1.222.948-2.425 1.436-3.6 14.596 6.598 27.466 8.178 27.616 8.196z" transform="translate(102.315 114.68)"/>
      <path fill="url(#h)" d="M33.35 7.736c1.108.15 1.963 1.072 1.934 2.087-.028 1.025-.957 1.739-2.065 1.607-.3-.037-3.04-.385-7.33-1.363a113.905 113.905 0 01-19.853-6.56C6.56 2.35 7.096 1.212 7.64.102 21.373 6.13 33.2 7.717 33.35 7.736z" transform="translate(102.315 114.68)"/>
      <path fill="url(#i)" d="M63.06 1.222c3.998.912 7.387 2.547 10.306 4.738-4.412-.677-11.292 1.024-15.216 4.624-5.181 4.747-13.488-.883-7.33-8.488 4.008-1.231 8.579-1.71 12.24-.874z" transform="translate(73.216 94)"/>
      <path fill="url(#j)" d="M75.384 7.614c-.094.01-14.596.743-20.876 12.934-5.5 10.688-12.672 60.668-15.337 80.361 5.172.357 10.466.573 15.91.64 15.741.178 27.24-1.787 35.66-5.321 1.333-17.033 3.895-71.092-15.357-88.614z" transform="translate(73.216 94)"/>
      <path fill="url(#k)" d="M18.426 96.707c-7.594-4.06-14.07-9.306-18.36-15.839C13.14 34.451 33.19 8.516 50.162 2.294c0 0-21.833 22.099-31.736 94.413z" transform="translate(73.216 94)"/>
      <path d="M123.003 96.425c.122-.047.244-.094.375-.14-.122.056-.244.093-.375.14zm11.442-1.532a.08.08 0 01.047.01c-.019 0-.037-.01-.047-.01z" fill="#FFF"/>
    </g>
    <path fill="url(#l)" fill-rule="nonzero" d="M4.13 23.622c-3.773 8.282-2.065 19.392 4.853 22.56 6.927 3.168 16.436-2.81 20.21-11.092 3.773-8.281 1.23-17.559-5.698-20.727-6.918-3.158-15.591.978-19.365 9.26z" transform="translate(129.536 43.24)"/>
    <path fill="url(#m)" fill-rule="nonzero" d="M4.243 31.95s1.774 2.228 5.848 1.909c-1.183 6.843-2.77 8.732-4.797 7.68-2.027-1.053-2.74-6.609-1.051-9.588z" transform="translate(129.536 43.24)"/>
    <path fill="url(#n)" fill-rule="nonzero" d="M26.78 31.17c-1.53.188-2.89-1.203-3.144-2.763-.263-1.57.347-3.196 1.21-4.569-1.267 1.044-3.003 1.401-4.496.931-1.492-.47-2.694-1.758-3.107-3.328-1.314.837-3.032.875-4.308.104-1.277-.771-2.075-2.322-1.99-3.901-1.568.583-3.417.79-4.731-.179-1.314-.968-1.52-3.45-.066-4.296-1.417-1.203-2.206-3.318-1.54-5.16.667-1.843 3.023-2.98 4.563-1.955-.244-1.382.46-2.933 1.661-3.648 1.202-.714 2.807-.554 3.783.395C15.985 1.344 18.06.64 19.937.996c1.878.358 3.492 1.768 4.159 3.62 1.07-1.1 2.731-1.185 4.186-1.035 1.286.132 2.638.405 3.586 1.288.948.884 1.314 2.557.47 3.629 1.876-.508 4.017-.32 5.396 1.015 1.38 1.335 1.568 3.985.075 5.301 1.972.433 4.056 1.016 5.342 2.595 1.285 1.579 1.257 4.484-.554 5.527 1.21-.028 2.337.799 2.806 1.946.46 1.147.3 2.538-.328 3.647-.76 1.354-2.366 2.312-3.755 1.852 1.286 1.297 2.168 3.233 1.652 5.085-.516 1.852-2.853 3.14-4.299 2.05.188 1.344.178 2.829-.573 3.994-.741 1.166-2.421 1.768-3.416.912.516 1.504.206 3.384-.976 4.484-1.183 1.1-3.201 1.137-4.15-.103.273 1.419-1.06 2.885-2.459 2.96-1.398.076-2.656-.996-3.163-2.33-2.018-.02-3.802-1.862-3.82-3.967-.02-2.106 1.717-4.146 3.736-4.38-.46.056 1.652-3.178 1.652-3.178.112-.517-.498-1.42-.329-2.2.207-.968.976-1.833 1.605-2.538z" transform="translate(129.536 43.24)"/>
    <path fill="url(#o)" fill-rule="nonzero" d="M19.074 39.33s.225-5.913 5.744-5.79c5.52.121 8.298 5.799 2.103 8.901-6.186 3.102-6.552-1.654-7.847-3.111z" transform="translate(129.536 43.24)"/>
    <g stroke="#ED1C24" transform="translate(129.536 61.1)">
      <ellipse cx="15.572" cy="11.468" fill="#FFF" fill-rule="nonzero" stroke-width=".866" rx="4.402" ry="4.409"/>
      <ellipse cx="5.252" cy="5.767" fill="#FFF" fill-rule="nonzero" stroke-width=".823" rx="4.182" ry="3.774" transform="rotate(-65.437 5.252 5.767)"/>
      <path stroke-width=".823" d="M13.93 7.388S11.77 5.114 9.086 5.17"/>
      <path stroke-linecap="round" stroke-linejoin="round" stroke-width=".823" d="M26.602 15.529s-6.674-3.422-6.665-3.497"/>
    </g>
    <path fill="#E5E5E5" fill-rule="nonzero" d="M106.905 72.568s2.797.16 3.294-4.672c.085-.818-.535-1.541-1.36-1.541h-12.25c0 .009 5.003 6.43 10.316 6.213z"/>
    <path fill="#FFF" fill-rule="nonzero" d="M103.91 29.253c-1.98 10.218-4.411 26.489-1.464 38.361 1.558 5.01 4.459 4.954 4.459 4.954H65.397s-2.675 1.006-4.243-4.004c-3.163-12.756-.131-31.81 1.69-41.304a5.213 5.213 0 015.125-4.24h30.816c3.286.01 5.754 3.009 5.125 6.233z"/>
    <g fill-rule="nonzero">
      <path d="M70.832 40.674h-4.337c-1.23 0-2.159-.997-2.084-2.237l.291-4.343c.085-1.232 1.145-2.237 2.375-2.237h4.337c1.23 0 2.159.996 2.084 2.237l-.282 4.343c-.084 1.231-1.145 2.237-2.384 2.237zm26.292-5.471H79.139c-.92 0-1.615-.743-1.558-1.664.056-.921.854-1.664 1.774-1.664H97.34c.92 0 1.614.743 1.558 1.664-.056.912-.854 1.664-1.774 1.664zM86.93 40.674h-8.993a.775.775 0 01-.779-.837.908.908 0 01.892-.836h8.993c.46 0 .807.376.779.836a.908.908 0 01-.892.837zm.188-2.736h-8.993a.775.775 0 01-.779-.836.908.908 0 01.892-.837h8.992c.46 0 .808.376.78.837a.915.915 0 01-.892.836zm7.678 2.736h-4.684a.775.775 0 01-.78-.837.908.908 0 01.893-.836h4.684c.46 0 .807.376.779.836a.915.915 0 01-.892.837zM75.92 66.364H64.776a1.616 1.616 0 01-1.605-1.57 1.515 1.515 0 011.52-1.57h11.143c.863 0 1.586.705 1.605 1.57a1.515 1.515 0 01-1.52 1.57zm20.669 0H83.804a.815.815 0 01-.807-.78.756.756 0 01.76-.78h12.785c.432 0 .788.347.807.78a.756.756 0 01-.76.78z" fill="#E5E5E5"/>
      <g transform="translate(71.339 43.24)">
        <ellipse cx="9.507" cy="8.716" fill="#FFC92A" rx="6.312" ry="5.946" transform="rotate(-44.145 9.507 8.716)"/>
        <g fill="#FFF" opacity=".4">
          <ellipse cx="1.893" cy="1.549" rx="1.117" ry="1" transform="rotate(-28.054 10.353 -8.313)"/>
          <circle cx=".877" cy=".746" r="1" transform="rotate(-17.518 14.253 -25.259)"/>
        </g>
        <path fill="#FCB70B" d="M9.208 13.583c-2.675 0-4.88-1.485-5.782-3.628.413 2.791 2.75 4.878 5.707 4.878s5.548-2.096 6.29-4.878c-1.155 2.143-3.54 3.628-6.215 3.628z"/>
        <path d="M13.404 7.67h-.019c-.122-.009-.197-.112-.178-.235.01-.084.019-.347-.103-.488-.066-.076-.16-.113-.291-.113a.422.422 0 00-.291.103c-.141.141-.179.414-.179.498a.22.22 0 01-.215.226c-.122 0-.216-.085-.216-.207 0-.047.01-.517.31-.818a.85.85 0 01.61-.244c.253 0 .46.085.6.254.263.3.207.761.197.818a.225.225 0 01-.225.206zm-6.383 0h-.019c-.122-.009-.197-.112-.178-.235.01-.084.019-.347-.103-.488-.066-.076-.16-.113-.291-.113a.422.422 0 00-.291.103c-.14.141-.178.414-.178.498a.22.22 0 01-.216.226c-.122 0-.216-.085-.216-.207 0-.047.01-.517.31-.818a.85.85 0 01.61-.244c.253 0 .46.085.6.254.263.3.207.761.198.818a.239.239 0 01-.226.206z" fill="#004F74"/>
        <path fill="#EF3B42" d="M9.5 8.648c-1.456-.01-2.826-.508-2.798.498.056 2.03 1.953 2.2 2.61 2.2h.056c.657 0 2.572-.17 2.872-2.2.141-1.006-1.286-.507-2.74-.498z"/>
        <path fill="#FFF" d="M9.471 9.588c.535 0 1.924-.085 2.553-.978-.44-.235-1.473.029-2.525.038-1.051-.01-2.055-.263-2.525-.038.526.893 1.896.978 2.44.978h.057z"/>
      </g>
    </g>
    <ellipse cx="93.444" cy="23.904" fill="url(#p)" fill-rule="nonzero" rx="7.537" ry="4.305"/>
    <path fill="#FFF" fill-rule="nonzero" d="M127.049 25.916s.675 5.264 5.369 6.448c-3.117.903-4.834 2.435-5.585 5.443 0 0-.676-4.597-4.985-5.819 0 0 4.637-.545 5.2-6.072zM51.758 73.837s.676 5.264 5.37 6.448c-3.117.903-4.835 2.435-5.586 5.443 0 0-.676-4.597-4.984-5.819.01.01 4.637-.545 5.2-6.072zM45.45 51.362s.329 2.585 2.638 3.167c-1.53.442-2.375 1.194-2.741 2.68 0 0-.329-2.257-2.45-2.858 0-.01 2.281-.282 2.553-2.99zm12.794-34.799s.329 2.585 2.638 3.168c-1.53.441-2.375 1.193-2.741 2.679 0 0-.329-2.256-2.45-2.858 0 0 2.272-.273 2.553-2.99zm55.476 31.133s.412 3.243 3.304 3.966c-1.925.555-2.976 1.495-3.436 3.356 0 0-.413-2.83-3.07-3.581 0 0 2.854-.339 3.201-3.741z"/>
    <path fill="url(#q)" fill-rule="nonzero" d="M145.108 113.975s8.617-7.238 13.142-5.085c1.858-3.732-3.37-8.536-9.66-7.276-6.288 1.26-10.38 6.223-9.977 9.165.404 2.942 2.825 4.54 6.495 3.196z"/>
    <path fill="url(#r)" fill-rule="nonzero" d="M118.131 101.614s3.135-5.255 9.077-6.307c.882-2.66-2.497-2.708-6.064-1.73-3.717 1.006-6.936 5.142-9.048 9.475-2.112 4.334 3.444 2.538 6.035-1.438z"/>
    <ellipse cx="142.762" cy="109.651" fill="url(#s)" fill-rule="nonzero" rx="2.347" ry="2.35"/>
    <path fill="url(#t)" fill-rule="nonzero" d="M115.146 102.563c-.647 1.128-1.793 1.683-2.553 1.241-.76-.442-.854-1.71-.206-2.839.647-1.128 1.792-1.682 2.553-1.24.76.441.863 1.71.206 2.838z"/>
    <path fill="url(#u)" fill-rule="nonzero" d="M232.893 199.28c-2.478-.216-4.928-.555-7.35-1.147-5.182-1.269-10.232-3.76-13.639-7.868-2.431-2.923-5.35-7.83-7.941-10.603-.995-1.062-2.572-2.03-3.802-1.26-.75.47-1.032 1.42-1.201 2.285-.526 2.698 2.243 13.545.723 23.284-.076.488 0 1.005.018 1.513 5.05-3.205 7.904-10.293 15.16-4.973 3.98 2.924 10.888 1.833 18.032-1.231z"/>
    <path fill="url(#v)" fill-rule="nonzero" d="M158.25 108.89s6.064 11.975 28.864 17.24c22.8 5.263 16.84 26.329 38.523 50.12 21.683 23.791 21.448 24.948 21.448 24.948s12.006-10.49 10.382-20.84c-11.311-5.264-33.454-25.606-43.141-44.998-9.687-19.392-26.142-18.048-40.823-19.627-8.758-1.626-15.253-6.843-15.253-6.843z"/>
    <path fill="url(#w)" fill-rule="nonzero" d="M181.144 202.655c-.713-.62-1.455-1.316-2.384-1.467-1.408-.216-2.722.94-3.267 2.256-.544 1.316-.544 2.792-.75 4.202a14.571 14.571 0 01-1.043 3.713c5.032-2.942 10.814-3.76 15.939-4.127-3.107-.902-6.036-2.444-8.495-4.577z"/>
    <g fill-rule="nonzero">
      <path fill="url(#x)" d="M49.796 69.71c.413-1.222.695-2.547 1.052-3.75.206-.696.422-1.4.91-2.012 1.99-2.604 6.646-1.363 9.115-3.515 1.783-1.9 1.576-4.25 2.562-6.543.91-2.011 2.844-3.412 4.506-4.897 1.436-1.241 2.919-2.632 3.736-4.362.816-1.73.75-4.042-.676-5.377-1.52-1.522-4.187-1.26-6.045-.14-1.493.92-2.516 2.293-3.764 3.44-2.29 2.058-4.881 3.102-7.622 4.117-2.234.855-5.398 1.278-7.05 3.215-1.201 1.466-1.145 3.318-2.065 4.869-1.145 1.786-2.43 2.012-4.196 2.858-2.28 1.137-4.486 3.177-5.21 5.696 4.572 2.322 9.49 4.465 14.747 6.401z" transform="translate(5.632 113.74)"/>
      <path fill="url(#y)" d="M39.621 65.509c1.136-2.473 1.605-5.471 1.643-8.207.094-2.867-.085-5.818.892-8.572 2.45-7.191 11.564-10.698 12.54-18.03.629-5.141-3.107-9.465-2.337-14.56.31-2.04 1.492-3.967 2.262-6.026.77-2.058 1.295-4.333.46-6.11-1.23-2.5-4.233-4.164-6.871-2.97-2.638 1.194-4.393 4.014-5.135 6.994-.403 1.86-.572 3.938-1.53 5.63-1.398 2.632-4.073 3.958-6.514 5.509-2.891 2.03-5.745 4.982-6.233 8.638-.497 3.206.657 6.449-.16 9.701-1.154 4.38-5.415 6.909-7.743 10.631-.986 1.608-1.577 3.366-1.84 5.17 5.867 4.522 12.756 8.62 20.566 12.202z" transform="translate(5.632 113.74)"/>
      <path fill="url(#z)" d="M24.828 57.415c-.291-3.384-2.61-6.27-3.239-10.124-.516-3.355.892-7.05.873-10.556.028-3.647-1.83-7.097-4.205-7.811-2.093-.63-4.506.32-6.308-1.279-1.567-1.381-2.168-4.455-2.89-7.115-.827-2.84-2.15-5.518-4.244-6.148-2.093-.63-4.552 1.983-4.27 5.123.29 2.068 1.576 3.365 2.196 5.377.863 2.82-.14 6.063-1.06 9.278 4.974 8.638 12.821 16.515 23.147 23.255z" transform="translate(5.632 113.74)"/>
      <path fill="url(#A)" d="M22.79 49.858a878.086 878.086 0 013.943-11.384C34.036 18.114 41.423.526 41.508.244l-.423-.122c-.037.141-7.434 17.729-14.774 38.23a448.486 448.486 0 00-3.952 11.261c.15.085.291.17.432.245z" transform="translate(12.203 124.08)"/>
      <path fill="url(#B)" d="M33.999 55.61C46.652 42.197 59.37 34.366 59.615 34.33l-.338-.404c-.17.178-13 8.046-25.73 21.488.151.056.301.132.452.197z" transform="translate(12.203 124.08)"/>
      <path fill="url(#C)" d="M8.11 39.395C4.9 26.715.957 17.446.807 17.305l-.507.15c.122.226 3.896 9.09 7.069 21.282.253.217.497.442.741.658z" transform="translate(12.203 124.08)"/>
    </g>
    <g fill-rule="nonzero">
      <path fill="url(#D)" d="M40.203 56.7c8.439-.554 11.377-7.077 12.447-15.274 1.286-9.88-3.06-28.567-3.06-28.567s-6.411 1.062-7.21-1.55C41.584 8.694 40.86-.725 50.285.112c9.856.874 4.29 10.33 4.29 10.33s19.872 26.273 10.307 53.74C54.537 93.887 9.603 88.238 2.835 80.126c-4.14-4.964-4.515-15.576 7.453-23.895 7.594-5.274 22.425.959 29.915.47z" transform="translate(139.861 58.28)"/>
      <path fill="url(#E)" d="M54.752 4.023s-.62 2.162-8.391 2.764c-3.032.235-3.004-1.128-3.004-1.128s.375 1.739.986 2.19c.61.451 3.304-1.128 4.58-.376 1.268.752-2.346 2.914-2.346 2.914s4.158-.77 4.862.254c.695-2.284 2.713-2.877 3.313-6.618z" transform="translate(139.861 58.28)"/>
      <path fill="url(#F)" d="M2.835 80.126c-4.14-4.964-4.515-15.576 7.453-23.895 7.594-5.274 22.425.959 29.915.46 8.439-.554 11.377-7.078 12.447-15.275.676-5.226-.216-12.896-1.211-18.978 3.173-2.059 6.514-2.313 8.992-2.087 4.966 10.124 10.4 26.743 4.45 43.823C54.537 93.878 9.603 88.238 2.835 80.126z" transform="translate(139.861 58.28)"/>
      <path fill="#009484" d="M191.3 80.727c3.173-2.058 6.515-2.312 8.993-2.087a76.675 76.675 0 013.698 8.93c-2.647-.329-7.603-.686-11.686.517a135.851 135.851 0 00-1.005-7.36zm12.86 43.183c-3.229-1.043-6.89-.432-9.612 1.984-3.52 3.13-4.261 8.206-2.084 12.173 5.013-3.262 9.162-7.868 11.696-14.156z"/>
    </g>
  </g>
</svg>
